<?xml version="1.0" encoding="UTF-8"?>
<svg version="1.1" xmlns="http://www.w3.org/2000/svg" width="200" height="200">
<path d="M0 0 C0.8383136 -0.00997513 1.6766272 -0.01995026 2.54034424 -0.03022766 C3.91499344 -0.03122467 3.91499344 -0.03122467 5.31741333 -0.03224182 C6.76905884 -0.0447271 6.76905884 -0.0447271 8.25003052 -0.0574646 C11.45628862 -0.08160376 14.66234346 -0.09034142 17.86868286 -0.09693909 C20.09444237 -0.10590223 22.32020124 -0.11502401 24.54595947 -0.1242981 C29.21490952 -0.14080116 33.88378775 -0.14849065 38.55276489 -0.15138245 C44.53750889 -0.15676843 50.52157863 -0.19445239 56.50613213 -0.24012661 C61.10435455 -0.26985841 65.70241383 -0.27710516 70.30072403 -0.2781086 C72.50716364 -0.28231837 74.71360341 -0.2947828 76.91994858 -0.31562614 C80.00606724 -0.34246007 83.09061286 -0.33773844 86.17678833 -0.32521057 C87.08917267 -0.34004486 88.00155701 -0.35487915 88.94158936 -0.37016296 C93.41331083 -0.3184299 95.26749077 -0.20877377 98.87606812 2.65275574 C100.83123135 5.21483982 102.53432784 7.72962552 104.11868286 10.53587341 C104.70206421 11.55890564 105.28544556 12.58193787 105.88650513 13.63597107 C106.80967529 15.28218445 106.80967529 15.28218445 107.75149536 16.96165466 C108.41070722 18.12278958 109.07079904 19.2834253 109.73171997 20.44358826 C111.10324909 22.85278541 112.47098469 25.26407523 113.83596802 27.67698669 C117.0037681 33.27013077 120.2231998 38.83351689 123.43899536 44.39915466 C124.04936646 45.45771667 124.65973755 46.51627869 125.28860474 47.60691833 C130.35265518 56.38545246 135.45468143 65.14152709 140.57400513 73.88792419 C141.12499878 74.83006775 141.67599243 75.7722113 142.24368286 76.74290466 C142.72949829 77.57241638 143.21531372 78.4019281 143.71585083 79.25657654 C146.42778539 83.97080186 146.6717938 87.88188631 145.87649536 93.27415466 C144.16592369 97.54913787 141.87638095 101.39980053 139.50149536 105.33665466 C138.85881714 106.44081726 138.21613892 107.54497986 137.5539856 108.68260193 C135.68097449 111.89177382 133.7816982 115.0840233 131.87649536 118.27415466 C130.9981568 119.77035686 130.12157071 121.26759076 129.24758911 122.76634216 C127.70075084 125.41460928 126.14219168 128.05543091 124.57571411 130.69212341 C121.75519663 135.45670185 119.00063465 140.25869775 116.24246216 145.05955505 C106.14439864 162.63179532 106.14439864 162.63179532 102.12649536 169.27415466 C101.55415161 170.22290466 100.98180786 171.17165466 100.39212036 172.14915466 C98.87649536 174.27415466 98.87649536 174.27415466 95.87649536 176.27415466 C93.95958138 176.53421688 93.95958138 176.53421688 91.75299072 176.54830933 C90.91467712 176.55828445 90.07636353 176.56825958 89.21264648 176.57853699 C88.29621368 176.57920166 87.37978088 176.57986633 86.43557739 176.58055115 C85.46781372 176.58887466 84.50005005 176.59719818 83.50296021 176.60577393 C80.2967021 176.62991309 77.09064726 176.63865075 73.88430786 176.64524841 C71.65854836 176.65421155 69.43278948 176.66333333 67.20703125 176.67260742 C62.5380812 176.68911049 57.86920297 176.69679998 53.20022583 176.69969177 C47.21548183 176.70507776 41.23141209 176.74276171 35.2468586 176.78843594 C30.64863618 176.81816773 26.0505769 176.82541449 21.45226669 176.82641792 C19.24582709 176.83062769 17.03938732 176.84309213 14.83304214 176.86393547 C11.74692348 176.89076939 8.66237786 176.88604777 5.57620239 176.8735199 C4.66381805 176.88835419 3.75143372 176.90318848 2.81140137 176.91847229 C-1.6603201 176.86673923 -3.51450005 176.7570831 -7.12307739 173.89555359 C-9.07824063 171.3334695 -10.78133712 168.81868381 -12.36569214 166.01243591 C-12.94899292 164.98956482 -13.5322937 163.96669373 -14.13327026 162.91282654 C-14.74879761 161.81518982 -15.36432495 160.7175531 -15.99850464 159.58665466 C-16.65845446 158.42405813 -17.31927874 157.26195759 -17.98092651 156.10032654 C-19.3531285 153.6896312 -20.72156546 151.27685774 -22.08737183 148.86253357 C-24.62381016 144.38480811 -27.19725371 139.92865407 -29.7741394 135.47410583 C-31.00764679 133.33977167 -32.23730199 131.20320658 -33.46310425 129.06443787 C-36.36447721 124.00721282 -39.29083738 118.97075609 -42.32098389 113.98973083 C-43.39097102 112.22791847 -44.45187096 110.46094519 -45.51022339 108.69212341 C-46.84011466 106.47563797 -48.18684171 104.26913395 -49.55319214 102.07493591 C-53.2905334 95.79781005 -55.9181457 90.6197602 -54.12350464 83.27415466 C-52.36464374 79.01801044 -50.12440919 75.15019793 -47.74850464 71.21165466 C-47.10582642 70.10749207 -46.46314819 69.00332947 -45.80099487 67.8657074 C-43.92798377 64.65653551 -42.02870747 61.46428602 -40.12350464 58.27415466 C-39.24516608 56.77795247 -38.36857999 55.28071857 -37.49459839 53.78196716 C-35.94776011 51.13370005 -34.38920095 48.49287841 -32.82272339 45.85618591 C-30.00220591 41.09160748 -27.24764393 36.28961157 -24.48947144 31.48875427 C-14.39140792 13.91651401 -14.39140792 13.91651401 -10.37350464 7.27415466 C-9.51498901 5.85102966 -9.51498901 5.85102966 -8.63912964 4.39915466 C-6.18647474 0.96038079 -4.06250279 0.02594527 0 0 Z M69.00540161 31.56321716 C68.24878437 32.77203073 67.54554022 34.01475844 66.87649536 35.27415466 C66.37255249 36.10318298 65.86860962 36.9322113 65.34939575 37.78636169 C63.51197431 40.83661207 61.75335187 43.92401068 60.00149536 47.02415466 C59.00244023 48.77422365 58.00337615 50.52428761 57.00375366 52.27403259 C55.97161415 54.0823189 54.94195568 55.89200085 53.91262817 57.70188904 C50.75952051 63.24071703 47.56579611 68.75611812 44.37649536 74.27415466 C43.12630722 76.44071278 41.87630776 78.60737978 40.62649536 80.77415466 C33.12649536 93.77415466 33.12649536 93.77415466 31.24880981 97.02854919 C30.00746061 99.1803938 28.76640907 101.33241014 27.52566528 103.48460388 C24.61669533 108.52967528 21.70489013 113.57303887 18.78216553 118.6101532 C17.74906596 120.39095468 16.71693365 122.17231325 15.68508911 123.95384216 C14.39143449 126.18672549 13.09597372 128.41856376 11.79837036 130.64915466 C8.63546967 136.11297871 5.62351022 141.58926535 2.87649536 147.27415466 C6.6055135 147.36152202 10.33426702 147.41466948 14.06399536 147.46165466 C15.11909302 147.48679138 16.17419067 147.5119281 17.26126099 147.53782654 C18.28284302 147.54749451 19.30442505 147.55716248 20.35696411 147.56712341 C21.29435425 147.58283386 22.23174438 147.59854431 23.19754028 147.61473083 C26.49865586 147.19505926 28.23514519 146.29192102 30.87649536 144.27415466 C32.67778863 141.92231879 32.67778863 141.92231879 34.15383911 139.13743591 C35.03652466 137.57799255 35.03652466 137.57799255 35.93704224 135.98704529 C36.55643677 134.86491638 37.1758313 133.74278748 37.81399536 132.58665466 C38.47602304 131.40944311 39.13945734 130.23302158 39.80422974 129.05735779 C41.16989466 126.64074553 42.53039513 124.22133549 43.88772583 121.80003357 C46.81857299 116.58666258 49.8494101 111.43203496 52.87649536 106.27415466 C59.61401999 94.74869105 66.28645133 83.1861208 72.95022583 71.61790466 C75.60683552 67.00638041 78.26479094 62.39563326 80.9236145 57.78538513 C82.17962434 55.60750584 83.43534475 53.4294596 84.69070435 51.25120544 C85.5561084 49.750495 85.5561084 49.750495 86.43899536 48.21946716 C86.99844849 47.24912537 87.55790161 46.27878357 88.13430786 45.27903748 C90.59789846 41.02989606 93.09293548 36.79929544 95.59133911 32.57054138 C96.9578897 30.56730535 96.9578897 30.56730535 96.87649536 29.27415466 C92.81453966 29.09959128 88.75354949 28.99321046 84.68899536 28.89915466 C83.53850708 28.84888123 82.3880188 28.79860779 81.20266724 28.74681091 C74.59953332 28.51466242 74.59953332 28.51466242 69.00540161 31.56321716 Z M-1.12350464 40.27415466 C4.14246934 50.37952932 9.7203489 60.25238931 15.55032349 70.04222107 C17.88141831 73.96542962 20.18999278 77.90188263 22.50149536 81.83665466 C23.34775431 83.27551275 24.19409933 84.71432023 25.04055786 86.15306091 C25.64641724 87.18302185 26.25227661 88.21298279 26.87649536 89.27415466 C30.40238542 85.95917693 32.6474761 82.0828491 35.12649536 77.96165466 C35.59829224 77.21464294 36.07008911 76.46763123 36.55618286 75.69798279 C36.99704224 74.96386169 37.43790161 74.2297406 37.89212036 73.47337341 C38.29720825 72.81168152 38.70229614 72.14998962 39.11965942 71.46824646 C40.49092603 67.49290034 39.35433748 64.28024882 37.60134888 60.58934021 C37.07468628 59.70544617 36.54802368 58.82155212 36.00540161 57.91087341 C35.43112427 56.94214294 34.85684692 55.97341248 34.26516724 54.97532654 C33.36121216 53.48355896 33.36121216 53.48355896 32.43899536 51.96165466 C31.84022583 50.94780701 31.2414563 49.93395935 30.62454224 48.88938904 C28.0063234 43.82643171 28.0063234 43.82643171 23.87649536 40.27415466 C21.99010416 40.18923967 20.10071021 40.16696166 18.21243286 40.17649841 C16.5302063 40.1813324 16.5302063 40.1813324 14.81399536 40.18626404 C13.05055786 40.1988324 13.05055786 40.1988324 11.25149536 40.21165466 C10.06813599 40.21616638 8.88477661 40.2206781 7.66555786 40.22532654 C4.7358203 40.23714 1.80618264 40.25361209 -1.12350464 40.27415466 Z M60.87649536 105.27415466 C58.80504071 108.65265169 56.77488697 112.05419142 54.75149536 115.46165466 C54.1623938 116.42136169 53.57329224 117.38106873 52.96633911 118.36985779 C52.41848755 119.30120544 51.87063599 120.2325531 51.30618286 121.19212341 C50.79297485 122.04572449 50.27976685 122.89932556 49.75100708 123.77879333 C48.60349818 126.28608461 48.60349818 126.28608461 49.63259888 128.94041443 C50.94739693 131.40717685 52.36252024 133.71560633 53.93899536 136.02415466 C54.46622192 136.80274841 54.99344849 137.58134216 55.53665161 138.38352966 C56.739689 140.19337179 56.739689 140.19337179 57.87649536 141.27415466 C59.73019147 141.36153111 61.58717077 141.38113619 63.44290161 141.37181091 C64.56760864 141.36858826 65.69231567 141.3653656 66.85110474 141.36204529 C68.03510864 141.35366638 69.21911255 141.34528748 70.43899536 141.33665466 C71.62686646 141.33214294 72.81473755 141.32763123 74.03860474 141.32298279 C76.98461762 141.31115141 79.93053217 141.29466753 82.87649536 141.27415466 C78.48480985 133.17386686 74.01100067 125.1218588 69.50149536 117.08665466 C68.8608313 115.94390076 68.22016724 114.80114685 67.56008911 113.62376404 C65.99945461 110.84024429 64.43824768 108.05704734 62.87649536 105.27415466 C62.21649536 105.27415466 61.55649536 105.27415466 60.87649536 105.27415466 Z " fill="#00FF76" transform="translate(54.123504638671875,11.725845336914063)"/>
</svg>
