<?xml version="1.0" encoding="UTF-8"?>
<svg version="1.1" xmlns="http://www.w3.org/2000/svg" width="64" height="64">
<path d="M0 0 C0.66 0 1.32 0 2 0 C2.11593506 0.87325928 2.23187012 1.74651855 2.35131836 2.64624023 C2.78218748 5.876359 3.2168239 9.10594152 3.65405273 12.33520508 C3.84274864 13.73474037 4.02992769 15.13448103 4.21557617 16.53442383 C4.48220272 18.54301046 4.75468276 20.55081738 5.02734375 22.55859375 C5.18968506 23.76829834 5.35202637 24.97800293 5.51928711 26.22436523 C5.70824127 28.90026363 5.70824127 28.90026363 7 30 C8.98 22.74 10.96 15.48 13 8 C16 9 16 9 17 11 C22.94 11.33 28.88 11.66 35 12 C36 16 36 16 35.29077148 17.88769531 C34.71178101 18.84820801 34.71178101 18.84820801 34.12109375 19.828125 C33.48010742 20.90513672 33.48010742 20.90513672 32.82617188 22.00390625 C32.36791016 22.74511719 31.90964844 23.48632812 31.4375 24.25 C30.79071289 25.33861328 30.79071289 25.33861328 30.13085938 26.44921875 C29.24288531 27.92086853 28.32730908 29.37618262 27.38623047 30.81445312 C25.96090183 32.97133625 25.96090183 32.97133625 24.88330078 35.29492188 C23.46306562 37.83717116 22.37479899 39.29046912 20 41 C15.35800789 42.03759413 10.94592262 42.15312242 6.20507812 42.04296875 C4.00203652 42.00003968 1.81201521 42.04257159 -0.390625 42.09375 C-10.41907855 42.1380475 -10.41907855 42.1380475 -14.14477539 39.45605469 C-15.73665298 37.38484421 -16.85808885 35.34673476 -18 33 C-18.92586545 31.5402699 -19.86214887 30.08709688 -20.80859375 28.640625 C-21.68987108 27.1800738 -22.56618589 25.71651672 -23.4375 24.25 C-23.89576172 23.50878906 -24.35402344 22.76757812 -24.82617188 22.00390625 C-25.25349609 21.28589844 -25.68082031 20.56789063 -26.12109375 19.828125 C-26.5070874 19.1877832 -26.89308105 18.54744141 -27.29077148 17.88769531 C-28.17106414 15.54469262 -27.8146627 14.32318996 -27 12 C-24.22754986 11.86512405 -21.46162912 11.76599193 -18.6875 11.6875 C-17.50897461 11.6246582 -17.50897461 11.6246582 -16.30664062 11.56054688 C-14.09972567 11.51359124 -12.15716021 11.52577942 -10 12 C-7.93110602 14.42491781 -7 15.80030995 -7 19 C-4.85254971 18.20617967 -4.85254971 18.20617967 -4.31396484 16.23413086 C-4.11496582 15.48526611 -3.9159668 14.73640137 -3.7109375 13.96484375 C-3.49179687 13.15595703 -3.27265625 12.34707031 -3.046875 11.51367188 C-2.82515625 10.66353516 -2.6034375 9.81339844 -2.375 8.9375 C-2.14554688 8.08349609 -1.91609375 7.22949219 -1.6796875 6.34960938 C-1.11260838 4.23487683 -0.55307378 2.11843061 0 0 Z " fill="#D613E9" transform="translate(28,21)"/>
<path d="M0 0 C1.51805976 -0.01654473 3.03604208 -0.04381598 4.55371094 -0.08203125 C6.74186619 -0.13686028 8.9281933 -0.15868132 11.11694336 -0.17333984 C12.43025635 -0.19315918 13.74356934 -0.21297852 15.09667969 -0.23339844 C18.47241211 0.35009766 18.47241211 0.35009766 20.74145508 2.58764648 C21.3126709 3.49925537 21.88388672 4.41086426 22.47241211 5.35009766 C22.99101807 6.12232666 23.50962402 6.89455566 24.04394531 7.69018555 C25.63732264 10.25657758 27.21596828 12.83119185 28.78491211 15.41259766 C29.34758789 16.31042969 29.91026367 17.20826172 30.48999023 18.13330078 C31.01657227 19.00019531 31.5431543 19.86708984 32.08569336 20.76025391 C32.56820557 21.54537354 33.05071777 22.33049316 33.54785156 23.1394043 C34.62169538 25.70704512 34.44226132 26.79070244 33.47241211 29.35009766 C30.69996197 29.48497361 27.93404123 29.58410572 25.15991211 29.66259766 C24.37422852 29.70449219 23.58854492 29.74638672 22.77905273 29.78955078 C20.57213778 29.83650642 18.62957232 29.82431824 16.47241211 29.35009766 C14.40351812 26.92517985 13.47241211 25.5497877 13.47241211 22.35009766 C11.32496182 23.14391799 11.32496182 23.14391799 10.78637695 25.1159668 C10.48787842 26.23926392 10.48787842 26.23926392 10.18334961 27.38525391 C9.85463867 28.59858398 9.85463867 28.59858398 9.51928711 29.83642578 C9.18670898 31.11163086 9.18670898 31.11163086 8.84741211 32.41259766 C8.61795898 33.26660156 8.38850586 34.12060547 8.15209961 35.00048828 C7.58502049 37.11522083 7.02548589 39.23166705 6.47241211 41.35009766 C5.81241211 41.35009766 5.15241211 41.35009766 4.47241211 41.35009766 C4.29850952 40.04020874 4.29850952 40.04020874 4.12109375 38.70385742 C3.69022463 35.47373866 3.25558821 32.24415614 2.81835938 29.01489258 C2.62966347 27.61535728 2.44248442 26.21561662 2.25683594 24.81567383 C1.99020939 22.80708719 1.71772935 20.79928028 1.44506836 18.79150391 C1.2015564 16.97694702 1.2015564 16.97694702 0.953125 15.12573242 C0.76417084 12.44983402 0.76417084 12.44983402 -0.52758789 11.35009766 C-2.50758789 18.94009766 -4.48758789 26.53009766 -6.52758789 34.35009766 C-7.18758789 34.35009766 -7.84758789 34.35009766 -8.52758789 34.35009766 C-9.18758789 33.03009766 -9.84758789 31.71009766 -10.52758789 30.35009766 C-16.46758789 30.02009766 -22.40758789 29.69009766 -28.52758789 29.35009766 C-29.52758789 25.35009766 -29.52758789 25.35009766 -27.86743164 21.99462891 C-27.07984482 20.70910774 -26.27826837 19.43208384 -25.46508789 18.16259766 C-25.05258789 17.49856934 -24.64008789 16.83454102 -24.21508789 16.15039062 C-14.19739086 0.11349324 -14.19739086 0.11349324 0 0 Z " fill="#00ADFF" transform="translate(29.527587890625,1.64990234375)"/>
<path d="M0 0 C3.96 0.33 7.92 0.66 12 1 C12.66 3.31 13.32 5.62 14 8 C16.475 8.495 16.475 8.495 19 9 C19 9.66 19 10.32 19 11 C19.639375 11.12375 20.27875 11.2475 20.9375 11.375 C21.618125 11.58125 22.29875 11.7875 23 12 C23.33 12.66 23.66 13.32 24 14 C24.99 14.33 25.98 14.66 27 15 C27 15.66 27 16.32 27 17 C27.639375 17.226875 28.27875 17.45375 28.9375 17.6875 C40.27272727 22.54545455 40.27272727 22.54545455 42 26 C42.99 26.66 43.98 27.32 45 28 C40.42269793 30.28865104 34.27456885 29.4546874 29.25 29.5625 C27.97382813 29.62501953 26.69765625 29.68753906 25.3828125 29.75195312 C16.22480182 29.90968504 16.22480182 29.90968504 12.96264648 27.48681641 C11.36910276 25.40716344 10.18951331 23.33244187 9 21 C8.07140196 19.54200669 7.13518016 18.08884101 6.19140625 16.640625 C5.31012892 15.1800738 4.43381411 13.71651672 3.5625 12.25 C3.10423828 11.50878906 2.64597656 10.76757812 2.17382812 10.00390625 C1.74650391 9.28589844 1.31917969 8.56789063 0.87890625 7.828125 C0.29991577 6.8676123 0.29991577 6.8676123 -0.29077148 5.88769531 C-1 4 -1 4 0 0 Z " fill="#E815CA" transform="translate(1,33)"/>
<path d="M0 0 C0.66 0.66 1.32 1.32 2 2 C4.36030696 2.45847689 6.7398174 2.82143131 9.125 3.125 C11.04699219 3.37636719 11.04699219 3.37636719 13.0078125 3.6328125 C14.48894531 3.81457031 14.48894531 3.81457031 16 4 C15.67 4.66 15.34 5.32 15 6 C15.20625 7.11375 15.4125 8.2275 15.625 9.375 C16.49049835 15.16635931 14.6284173 20.47994136 13 26 C12.34 26 11.68 26 11 26 C10.34 24.68 9.68 23.36 9 22 C3.06 21.67 -2.88 21.34 -9 21 C-10 17 -10 17 -9.30322266 15.20068359 C-8.9272998 14.60594238 -8.55137695 14.01120117 -8.1640625 13.3984375 C-7.75929688 12.74359375 -7.35453125 12.08875 -6.9375 11.4140625 C-6.504375 10.74117187 -6.07125 10.06828125 -5.625 9.375 C-4.78362007 8.02879211 -3.94246398 6.6824443 -3.1015625 5.3359375 C-2.40804688 4.23507813 -1.71453125 3.13421875 -1 2 C-0.67 1.34 -0.34 0.68 0 0 Z " fill="#7D07FC" transform="translate(10,10)"/>
<path d="M0 0 C3 1 3 1 4 3 C9.94 3.33 15.88 3.66 22 4 C23.07454956 8.29819824 23.10362146 8.54801252 21.05078125 12.07421875 C20.61443359 12.82380859 20.17808594 13.57339844 19.72851562 14.34570312 C19.26123047 15.11849609 18.79394531 15.89128906 18.3125 16.6875 C17.86455078 17.47189453 17.41660156 18.25628906 16.95507812 19.06445312 C16.51228516 19.81017578 16.06949219 20.55589844 15.61328125 21.32421875 C15.20891846 22.00572998 14.80455566 22.68724121 14.38793945 23.3894043 C12.70129657 25.34662209 11.51467856 25.62996821 9 26 C9 25.34 9 24.68 9 24 C8.01 23.67 7.02 23.34 6 23 C4.8125 19.4375 4.8125 19.4375 4 16 C3.34 16 2.68 16 2 16 C2 15.34 2 14.68 2 14 C0.68 14.33 -0.64 14.66 -2 15 C-3.31534494 11.34142468 -2.65468309 8.91973519 -1.5625 5.25 C-1.27503906 4.26515625 -0.98757812 3.2803125 -0.69140625 2.265625 C-0.46324219 1.51796875 -0.23507813 0.7703125 0 0 Z " fill="#8708FA" transform="translate(41,29)"/>
<path d="M0 0 C0.54269531 0.27714844 1.08539063 0.55429688 1.64453125 0.83984375 C2.71767578 1.38318359 2.71767578 1.38318359 3.8125 1.9375 C4.87404297 2.47697266 4.87404297 2.47697266 5.95703125 3.02734375 C8.11810285 4.10730516 8.11810285 4.10730516 11 5 C11.33 5.66 11.66 6.32 12 7 C12.99 7.33 13.98 7.66 15 8 C18 9 18 9 19 11 C19.99 11.33 20.98 11.66 22 12 C22.33 12.66 22.66 13.32 23 14 C24.65948148 15.01187895 26.32580562 16.0126546 28 17 C28 17.33 28 17.66 28 18 C25.73078464 18.13489391 23.4592933 18.23193995 21.1875 18.3125 C19.29064453 18.39951172 19.29064453 18.39951172 17.35546875 18.48828125 C14 18 14 18 12.05078125 15.60546875 C11 13 11 13 11 11 C8.85254971 11.79382033 8.85254971 11.79382033 8.31396484 13.76586914 C8.11496582 14.51473389 7.9159668 15.26359863 7.7109375 16.03515625 C7.49179687 16.84404297 7.27265625 17.65292969 7.046875 18.48632812 C6.82515625 19.33646484 6.6034375 20.18660156 6.375 21.0625 C6.14554688 21.91650391 5.91609375 22.77050781 5.6796875 23.65039062 C5.11260838 25.76512317 4.55307378 27.88156939 4 30 C3.34 30 2.68 30 2 30 C1.49209841 26.48026001 0.99511477 22.95905958 0.5 19.4375 C0.35691406 18.44685547 0.21382812 17.45621094 0.06640625 16.43554688 C-0.65740858 11.24820725 -1.28748279 6.23937393 -1 1 C-0.67 0.67 -0.34 0.34 0 0 Z " fill="#0C70FF" transform="translate(32,13)"/>
<path d="M0 0 C1.29349365 0.00523682 2.5869873 0.01047363 3.91967773 0.01586914 C4.9496714 0.01799156 4.9496714 0.01799156 6.00047302 0.02015686 C8.20144949 0.0257706 10.40232557 0.03832532 12.60327148 0.05102539 C14.09220231 0.05603863 15.58113473 0.06060184 17.07006836 0.06469727 C20.72700223 0.07574446 24.38387707 0.09301826 28.04077148 0.11352539 C28.04077148 0.44352539 28.04077148 0.77352539 28.04077148 1.11352539 C21.11077148 1.11352539 14.18077148 1.11352539 7.04077148 1.11352539 C7.04077148 1.77352539 7.04077148 2.43352539 7.04077148 3.11352539 C8.46389648 3.23727539 8.46389648 3.23727539 9.91577148 3.36352539 C10.94702148 3.61102539 11.97827148 3.85852539 13.04077148 4.11352539 C14.22827148 6.11352539 14.22827148 6.11352539 15.04077148 8.11352539 C16.03077148 8.44352539 17.02077148 8.77352539 18.04077148 9.11352539 C19.22827148 12.17602539 19.22827148 12.17602539 20.04077148 15.11352539 C15.04077148 13.11352539 15.04077148 13.11352539 10.04077148 11.11352539 C9.38077148 13.42352539 8.72077148 15.73352539 8.04077148 18.11352539 C7.38077148 17.78352539 6.72077148 17.45352539 6.04077148 17.11352539 C6.04077148 16.12352539 6.04077148 15.13352539 6.04077148 14.11352539 C1.7065645 12.08186587 -2.24519063 11.59291907 -6.95922852 11.11352539 C-7.70922852 9.48852539 -7.70922852 9.48852539 -7.95922852 7.11352539 C-3.86195285 0.14815676 -3.86195285 0.14815676 0 0 Z " fill="#0090FF" transform="translate(18.959228515625,1.886474609375)"/>
<path d="M0 0 C3.01217112 0.64449607 5.51655836 1.65022182 8.25 3.0625 C8.95640625 3.42472656 9.6628125 3.78695312 10.390625 4.16015625 C10.92171875 4.43730469 11.4528125 4.71445312 12 5 C12 5.99 12 6.98 12 8 C13.32 8 14.64 8 16 8 C16 8.99 16 9.98 16 11 C17.3303125 11.433125 17.3303125 11.433125 18.6875 11.875 C21.50382424 12.83148748 24.25083156 13.86798946 27 15 C27 15.99 27 16.98 27 18 C12.87743599 19.20763018 12.87743599 19.20763018 8.77734375 16.5703125 C7.18294262 14.4529478 6.09188457 12.4152641 5 10 C4.52175781 9.08992188 4.04351562 8.17984375 3.55078125 7.2421875 C2.30763746 4.85126438 1.13226481 2.44489038 0 0 Z " fill="#F30A65" transform="translate(5,44)"/>
<path d="M0 0 C0.66 0 1.32 0 2 0 C2.36639923 2.35282812 2.71830159 4.70640636 3.0625 7.0625 C3.16626953 7.71927734 3.27003906 8.37605469 3.37695312 9.05273438 C4.0387065 13.685008 3.8450091 17.45586017 3 22 C2.34 22 1.68 22 1 22 C1 21.34 1 20.68 1 20 C-0.65 19.67 -2.3 19.34 -4 19 C-3.34 21.64 -2.68 24.28 -2 27 C-2.66 26.67 -3.32 26.34 -4 26 C-4 25.34 -4 24.68 -4 24 C-5.32 23.67 -6.64 23.34 -8 23 C-8 22.34 -8 21.68 -8 21 C-8.78375 20.9175 -9.5675 20.835 -10.375 20.75 C-13 20 -13 20 -14.3125 18.125 C-15 16 -15 16 -15 13 C-17.97 13 -20.94 13 -24 13 C-24 12.67 -24 12.34 -24 12 C-21.73078464 11.86510609 -19.4592933 11.76806005 -17.1875 11.6875 C-15.29064453 11.60048828 -15.29064453 11.60048828 -13.35546875 11.51171875 C-10 12 -10 12 -8.05078125 14.39453125 C-7 17 -7 17 -7 19 C-4.85254971 18.20617967 -4.85254971 18.20617967 -4.31396484 16.23413086 C-4.11496582 15.48526611 -3.9159668 14.73640137 -3.7109375 13.96484375 C-3.49179687 13.15595703 -3.27265625 12.34707031 -3.046875 11.51367188 C-2.82515625 10.66353516 -2.6034375 9.81339844 -2.375 8.9375 C-2.14554688 8.08349609 -1.91609375 7.22949219 -1.6796875 6.34960938 C-1.11260838 4.23487683 -0.55307378 2.11843061 0 0 Z " fill="#CD11ED" transform="translate(28,21)"/>
<path d="M0 0 C7.84029844 1.40359773 15.755234 3.93667622 22 9 C22 9.66 22 10.32 22 11 C22.65226562 11.15855469 23.30453125 11.31710938 23.9765625 11.48046875 C29.91041392 13.06457953 33.55793863 14.77462455 38 19 C38.99 19.66 39.98 20.32 41 21 C37.04 21 33.08 21 29 21 C29 20.01 29 19.02 29 18 C28.29875 17.896875 27.5975 17.79375 26.875 17.6875 C23.60862353 16.90640997 20.9528148 15.57941257 18 14 C18 13.01 18 12.02 18 11 C16.68 11 15.36 11 14 11 C14 10.01 14 9.02 14 8 C13.175 7.773125 12.35 7.54625 11.5 7.3125 C7.30128952 5.73798357 3.62460158 3.64025547 0 1 C0 0.67 0 0.34 0 0 Z " fill="#EC12A8" transform="translate(3,41)"/>
<path d="M0 0 C0.99 0.33 1.98 0.66 3 1 C3 1.66 3 2.32 3 3 C4.32 3.33 5.64 3.66 7 4 C7.66 6.31 8.32 8.62 9 11 C9.78375 10.95875 10.5675 10.9175 11.375 10.875 C14 11 14 11 16 13 C16.33 11.68 16.66 10.36 17 9 C17.33 9 17.66 9 18 9 C17.67 11.97 17.34 14.94 17 18 C16.34 18 15.68 18 15 18 C14.34 16.68 13.68 15.36 13 14 C7.06 13.67 1.12 13.34 -5 13 C-6 9 -6 9 -4.78515625 6.640625 C-4.21667969 5.85171875 -3.64820313 5.0628125 -3.0625 4.25 C-2.49660156 3.45078125 -1.93070312 2.6515625 -1.34765625 1.828125 C-0.90292969 1.22484375 -0.45820312 0.6215625 0 0 Z " fill="#A607F4" transform="translate(6,18)"/>
<path d="M0 0 C3 1 3 1 4 3 C9.94 3.33 15.88 3.66 22 4 C23 8 23 8 22.109375 10.140625 C21.66078125 10.83671875 21.2121875 11.5328125 20.75 12.25 C20.31171875 12.95640625 19.8734375 13.6628125 19.421875 14.390625 C18.95265625 14.92171875 18.4834375 15.4528125 18 16 C17.01 16 16.02 16 15 16 C15 15.34 15 14.68 15 14 C12.69 13.34 10.38 12.68 8 12 C8 11.67 8 11.34 8 11 C12.455 10.505 12.455 10.505 17 10 C16.01257813 9.93941406 15.02515625 9.87882812 14.0078125 9.81640625 C12.72648437 9.73261719 11.44515625 9.64882813 10.125 9.5625 C8.84882812 9.48128906 7.57265625 9.40007813 6.2578125 9.31640625 C3 9 3 9 1 8 C1 7.34 1 6.68 1 6 C0.34 6 -0.32 6 -1 6 C-0.67 4.02 -0.34 2.04 0 0 Z " fill="#552AFF" transform="translate(41,29)"/>
<path d="M0 0 C2.97 0.33 5.94 0.66 9 1 C9.33 1.99 9.66 2.98 10 4 C10.66 4 11.32 4 12 4 C12.33 4.66 12.66 5.32 13 6 C13.99 6.33 14.98 6.66 16 7 C16.33 7.66 16.66 8.32 17 9 C18.88263881 9.90343684 18.88263881 9.90343684 21.0625 10.625 C21.79597656 10.88539062 22.52945313 11.14578125 23.28515625 11.4140625 C24.13400391 11.70410156 24.13400391 11.70410156 25 12 C25 12.66 25 13.32 25 14 C25.66 14 26.32 14 27 14 C30 19.75 30 19.75 30 22 C31.32 22.33 32.64 22.66 34 23 C33.505 24.485 33.505 24.485 33 26 C30.5 24.625 30.5 24.625 28 23 C28 22.34 28 21.68 28 21 C26.68 20.67 25.36 20.34 24 20 C24 19.34 24 18.68 24 18 C21.69 17.34 19.38 16.68 17 16 C17 15.34 17 14.68 17 14 C16.38125 13.95875 15.7625 13.9175 15.125 13.875 C14.073125 13.441875 14.073125 13.441875 13 13 C12 10 12 10 11 7 C8.96756452 6.03122943 8.96756452 6.03122943 7 6 C6.67 4.68 6.34 3.36 6 2 C3.03 1.505 3.03 1.505 0 1 C0 0.67 0 0.34 0 0 Z " fill="#0094FF" transform="translate(26,4)"/>
<path d="M0 0 C0.5775 0.639375 1.155 1.27875 1.75 1.9375 C3.98062401 3.98223868 5.07436391 4.58205199 8 5 C9.25836883 10.08096095 8.53211998 13.96675464 7.0625 18.875 C6.86720703 19.56335938 6.67191406 20.25171875 6.47070312 20.9609375 C5.99154926 22.64381938 5.49730601 24.3223926 5 26 C4.34 26 3.68 26 3 26 C2.49559207 22.41727273 1.99724229 18.83372823 1.5 15.25 C1.35691406 14.23421875 1.21382812 13.2184375 1.06640625 12.171875 C0.93105469 11.1921875 0.79570312 10.2125 0.65625 9.203125 C0.53056641 8.30239258 0.40488281 7.40166016 0.27539062 6.47363281 C0 4 0 4 0 0 Z " fill="#2D4DFF" transform="translate(31,17)"/>
<path d="M0 0 C0.66 0.66 1.32 1.32 2 2 C4.36030696 2.45847689 6.7398174 2.82143131 9.125 3.125 C10.40632813 3.29257813 11.68765625 3.46015625 13.0078125 3.6328125 C14.48894531 3.81457031 14.48894531 3.81457031 16 4 C15.67 4.66 15.34 5.32 15 6 C15.09723451 7.99021521 15.09723451 7.99021521 15.4375 10.125 C15.623125 11.40375 15.80875 12.6825 16 14 C15.14921875 13.55333984 15.14921875 13.55333984 14.28125 13.09765625 C12.04747813 12.02284479 9.85440741 11.20752023 7.5 10.4375 C6.37078125 10.06431641 6.37078125 10.06431641 5.21875 9.68359375 C3.15815028 9.04872588 1.09684096 8.5003825 -1 8 C-1.93065133 5.39417629 -2.14917407 4.35801776 -1.0625 1.75 C-0.711875 1.1725 -0.36125 0.595 0 0 Z " fill="#5725FF" transform="translate(10,10)"/>
<path d="M0 0 C3.37462715 0.54723683 5.08235 1.0549 8 3 C9.65549531 3.38499891 11.3222433 3.72793135 13 4 C15.21538462 10.4 15.21538462 10.4 14.125 13.4375 C13.75375 13.953125 13.3825 14.46875 13 15 C12.938125 14.38125 12.87625 13.7625 12.8125 13.125 C12.186939 10.81869735 12.186939 10.81869735 9.9375 9.8125 C6.28260763 8.80157232 2.77303086 8.38369805 -1 8 C-1.93065133 5.39417629 -2.14917407 4.35801776 -1.0625 1.75 C-0.711875 1.1725 -0.36125 0.595 0 0 Z " fill="#1864FF" transform="translate(13,5)"/>
<path d="M0 0 C1.2065625 0.0309375 1.2065625 0.0309375 2.4375 0.0625 C2.4375 0.7225 2.4375 1.3825 2.4375 2.0625 C3.0975 2.0625 3.7575 2.0625 4.4375 2.0625 C4.870625 3.155625 5.30375 4.24875 5.75 5.375 C6.93245641 8.15658793 8.04550043 10.12611939 10.4375 12.0625 C9.4475 13.5475 9.4475 13.5475 8.4375 15.0625 C7.7775 15.0625 7.1175 15.0625 6.4375 15.0625 C6.4375 14.4025 6.4375 13.7425 6.4375 13.0625 C5.7775 13.0625 5.1175 13.0625 4.4375 13.0625 C4.4375 12.4025 4.4375 11.7425 4.4375 11.0625 C3.7775 11.0625 3.1175 11.0625 2.4375 11.0625 C1.7775 9.0825 1.1175 7.1025 0.4375 5.0625 C-0.5525 5.0625 -1.5425 5.0625 -2.5625 5.0625 C-3.125 3.125 -3.125 3.125 -3.5625 1.0625 C-2.5625 0.0625 -2.5625 0.0625 0 0 Z " fill="#BA0DEF" transform="translate(40.5625,42.9375)"/>
<path d="M0 0 C4.75 0.75 4.75 0.75 7 3 C9.03087007 3.56860506 9.03087007 3.56860506 11.3125 3.9375 C15.05451696 4.69797441 17.88593022 5.68956113 21 8 C21 8.33 21 8.66 21 9 C18.73078464 9.13489391 16.4592933 9.23193995 14.1875 9.3125 C12.29064453 9.39951172 12.29064453 9.39951172 10.35546875 9.48828125 C7 9 7 9 5.05078125 6.60546875 C4 4 4 4 4 2 C3.01 2.33 2.02 2.66 1 3 C0.67 2.01 0.34 1.02 0 0 Z " fill="#146AFF" transform="translate(39,22)"/>
<path d="M0 0 C0.99 0.33 1.98 0.66 3 1 C3 1.66 3 2.32 3 3 C4.32 3.33 5.64 3.66 7 4 C7.66 6.31 8.32 8.62 9 11 C6.69 11 4.38 11 2 11 C2 10.01 2 9.02 2 8 C-0.475 7.01 -0.475 7.01 -3 6 C-1.125 1.125 -1.125 1.125 0 0 Z " fill="#9705F8" transform="translate(6,18)"/>
<path d="M0 0 C5.06998019 0.65419099 9.41990777 2.8546409 14 5 C14 5.66 14 6.32 14 7 C14.639375 7.103125 15.27875 7.20625 15.9375 7.3125 C16.618125 7.539375 17.29875 7.76625 18 8 C18.33 8.99 18.66 9.98 19 11 C15.06751463 10.33125942 11.52438558 9.207088 7.8125 7.75 C6.76707031 7.35296875 5.72164063 6.9559375 4.64453125 6.546875 C1.51753125 4.71778785 0.93838736 3.4311587 0 0 Z " fill="#E716CB" transform="translate(0,35)"/>
<path d="M0 0 C2.02408755 0.09002398 4.04544287 0.24641038 6.0625 0.4375 C7.71958984 0.59025391 7.71958984 0.59025391 9.41015625 0.74609375 C10.26480469 0.82988281 11.11945312 0.91367187 12 1 C12.66 3.31 13.32 5.62 14 8 C16.475 8.495 16.475 8.495 19 9 C19 9.66 19 10.32 19 11 C20.32 11.33 21.64 11.66 23 12 C22.67 12.66 22.34 13.32 22 14 C20.35 13.34 18.7 12.68 17 12 C17 11.34 17 10.68 17 10 C15.68 9.67 14.36 9.34 13 9 C13 8.34 13 7.68 13 7 C12.0925 6.896875 11.185 6.79375 10.25 6.6875 C6.89628259 5.97805978 5.57527799 5.14606499 3 3 C1.68163705 2.30419733 0.35208914 1.62775567 -1 1 C-0.67 0.67 -0.34 0.34 0 0 Z " fill="#E017E5" transform="translate(1,33)"/>
<path d="M0 0 C0.9590625 1.423125 0.9590625 1.423125 1.9375 2.875 C2.8346875 4.2053125 2.8346875 4.2053125 3.75 5.5625 C4.9375 7.875 4.9375 7.875 4.9375 9.875 C2.5625 9.625 2.5625 9.625 -0.0625 8.875 C-1.1875 7 -1.1875 7 -2.0625 4.875 C-4.43981771 1.8637309 -6.52686178 1.31608178 -10.25 0.6875 C-11.60158203 0.44966797 -11.60158203 0.44966797 -12.98046875 0.20703125 C-13.66753906 0.09746094 -14.35460938 -0.01210937 -15.0625 -0.125 C-15.0625 -0.455 -15.0625 -0.785 -15.0625 -1.125 C-4.15379326 -2.88222389 -4.15379326 -2.88222389 0 0 Z " fill="#00CEFF" transform="translate(50.0625,4.125)"/>
<path d="M0 0 C0.66 0.66 1.32 1.32 2 2 C4.36030696 2.45847689 6.7398174 2.82143131 9.125 3.125 C10.40632813 3.29257813 11.68765625 3.46015625 13.0078125 3.6328125 C14.48894531 3.81457031 14.48894531 3.81457031 16 4 C15.67 4.99 15.34 5.98 15 7 C9.84828377 7.09038099 5.08086796 6.84681133 0 6 C-1.125 2.25 -1.125 2.25 0 0 Z " fill="#4438FF" transform="translate(10,10)"/>
<path d="M0 0 C0.66 0 1.32 0 2 0 C2.33 4.29 2.66 8.58 3 13 C2.01 13.66 1.02 14.32 0 15 C-2 13 -2 13 -2.01171875 10.72265625 C-1.90472656 9.84480469 -1.79773438 8.96695312 -1.6875 8.0625 C-1.58824219 7.18722656 -1.48898438 6.31195312 -1.38671875 5.41015625 C-1 3 -1 3 0 0 Z " fill="#780CFD" transform="translate(28,21)"/>
<path d="M0 0 C2.97 0.495 2.97 0.495 6 1 C6 1.66 6 2.32 6 3 C6.804375 3.144375 7.60875 3.28875 8.4375 3.4375 C11 4 11 4 12 5 C14.32817964 5.36760731 16.6618385 5.70241581 19 6 C19 6.33 19 6.66 19 7 C6.4412913 7.91768643 6.4412913 7.91768643 2.95703125 5.69921875 C0 2.06579912 0 2.06579912 0 0 Z " fill="#FD0012" transform="translate(11,55)"/>
<path d="M0 0 C4.62 0 9.24 0 14 0 C14.33 1.32 14.66 2.64 15 4 C14.01 4.66 13.02 5.32 12 6 C12 5.34 12 4.68 12 4 C11.38511719 3.96261719 10.77023438 3.92523438 10.13671875 3.88671875 C9.32847656 3.82097656 8.52023438 3.75523438 7.6875 3.6875 C6.88699219 3.62949219 6.08648437 3.57148437 5.26171875 3.51171875 C3 3 3 3 0 0 Z " fill="#2E4FFF" transform="translate(49,33)"/>
<path d="M0 0 C2.475 0.99 2.475 0.99 5 2 C4.85851011 3.6045556 4.71164314 5.20863767 4.5625 6.8125 C4.48128906 7.70582031 4.40007813 8.59914063 4.31640625 9.51953125 C4 12 4 12 3 15 C2.34 15 1.68 15 1 15 C0.15318867 9.91913204 -0.09038099 5.15171623 0 0 Z " fill="#710CF9" transform="translate(33,28)"/>
<path d="M0 0 C0.66 0 1.32 0 2 0 C2 0.66 2 1.32 2 2 C2.67546875 2.18175781 3.3509375 2.36351562 4.046875 2.55078125 C4.93890625 2.80214844 5.8309375 3.05351563 6.75 3.3125 C8.07257812 3.67794922 8.07257812 3.67794922 9.421875 4.05078125 C12.07161843 5.0263686 13.76400304 6.31383835 16 8 C19.65274469 8.72481084 19.65274469 8.72481084 23 9 C23 9.33 23 9.66 23 10 C19.04 10 15.08 10 11 10 C11 9.01 11 8.02 11 7 C9.948125 6.8453125 9.948125 6.8453125 8.875 6.6875 C5.60862353 5.90640997 2.9528148 4.57941257 0 3 C0 2.01 0 1.02 0 0 Z " fill="#ED0C85" transform="translate(21,52)"/>
<path d="M0 0 C1.32 0.99 2.64 1.98 4 3 C4.66 2.67 5.32 2.34 6 2 C7.125 8.75 7.125 8.75 6 11 C5.34 11 4.68 11 4 11 C4 10.34 4 9.68 4 9 C2.68 8.67 1.36 8.34 0 8 C-0.98120464 4.94736336 -0.98120464 3.05263664 0 0 Z " fill="#AB09F5" transform="translate(25,32)"/>
<path d="M0 0 C0.54140625 0.48082031 1.0828125 0.96164062 1.640625 1.45703125 C4.47897288 3.31323558 6.38792626 3.48737656 9.75 3.6875 C11.22726563 3.78611328 11.22726563 3.78611328 12.734375 3.88671875 C13.85585938 3.94279297 13.85585938 3.94279297 15 4 C16.1171875 7.71875 16.1171875 7.71875 15.0625 10.25 C14.711875 10.8275 14.36125 11.405 14 12 C13.938125 11.38125 13.87625 10.7625 13.8125 10.125 C13.186939 7.81869735 13.186939 7.81869735 10.9375 6.8125 C7.28260763 5.80157232 3.77303086 5.38369805 0 5 C-0.5625 3.0625 -0.5625 3.0625 -1 1 C-0.67 0.67 -0.34 0.34 0 0 Z " fill="#2D50FF" transform="translate(12,8)"/>
<path d="M0 0 C6.46098246 0.97893674 11.60134754 3.11260838 16 8 C16.66 8.33 17.32 8.66 18 9 C18 9.66 18 10.32 18 11 C16.68 11 15.36 11 14 11 C14 10.01 14 9.02 14 8 C13.175 7.773125 12.35 7.54625 11.5 7.3125 C7.30128952 5.73798357 3.62460158 3.64025547 0 1 C0 0.67 0 0.34 0 0 Z " fill="#ED1099" transform="translate(3,41)"/>
<path d="M0 0 C9.28870293 -0.30962343 9.28870293 -0.30962343 12 2 C13.22332313 4.29306889 14.09257832 6.54996148 15 9 C14.01 9.495 14.01 9.495 13 10 C12.67 8.35 12.34 6.7 12 5 C11.29875 5.061875 10.5975 5.12375 9.875 5.1875 C6.30737881 4.95482905 4.05839464 3.8072332 1 2 C0.67 1.34 0.34 0.68 0 0 Z " fill="#0281FF" transform="translate(14,4)"/>
<path d="M0 0 C3.3 0.99 6.6 1.98 10 3 C10 3.66 10 4.32 10 5 C11.4540625 5.4021875 11.4540625 5.4021875 12.9375 5.8125 C13.948125 6.204375 14.95875 6.59625 16 7 C16.33 7.99 16.66 8.98 17 10 C13.85262818 9.30058404 10.97411124 8.23921302 8 7 C8 6.34 8 5.68 8 5 C6.865625 4.731875 5.73125 4.46375 4.5625 4.1875 C3.386875 3.795625 2.21125 3.40375 1 3 C0.67 2.01 0.34 1.02 0 0 Z " fill="#F70645" transform="translate(9,51)"/>
<path d="M0 0 C1.98 0.66 3.96 1.32 6 2 C6 2.99 6 3.98 6 5 C6.99 5.33 7.98 5.66 9 6 C5.7 6.33 2.4 6.66 -1 7 C-1.33 5.68 -1.66 4.36 -2 3 C-1.34 2.01 -0.68 1.02 0 0 Z " fill="#C00FF1" transform="translate(2,24)"/>
<path d="M0 0 C3.01217112 0.64449607 5.51655836 1.65022182 8.25 3.0625 C8.95640625 3.42472656 9.6628125 3.78695312 10.390625 4.16015625 C10.92171875 4.43730469 11.4528125 4.71445312 12 5 C12 5.99 12 6.98 12 8 C8.87809026 7.62039672 5.94416805 7.12755372 3 6 C0.9375 2.875 0.9375 2.875 0 0 Z " fill="#F30A6F" transform="translate(5,44)"/>
<path d="M0 0 C0.99 0 1.98 0 3 0 C3.33 1.32 3.66 2.64 4 4 C4.66 4 5.32 4 6 4 C6.69699552 5.45381897 7.38233866 6.91322953 8.0625 8.375 C8.44535156 9.18710937 8.82820313 9.99921875 9.22265625 10.8359375 C9.60744141 11.90714844 9.60744141 11.90714844 10 13 C9.67 13.66 9.34 14.32 9 15 C6 9.25 6 9.25 6 7 C5.34 7 4.68 7 4 7 C4 6.34 4 5.68 4 5 C2.68 5.33 1.36 5.66 0 6 C-1.125 2.25 -1.125 2.25 0 0 Z " fill="#9D06F4" transform="translate(39,38)"/>
<path d="M0 0 C2.31 0.33 4.62 0.66 7 1 C7 1.66 7 2.32 7 3 C8.32 3.33 9.64 3.66 11 4 C11 4.66 11 5.32 11 6 C11.66 6 12.32 6 13 6 C13.33 6.99 13.66 7.98 14 9 C12.68 8.67 11.36 8.34 10 8 C10 7.34 10 6.68 10 6 C9.278125 5.731875 8.55625 5.46375 7.8125 5.1875 C5.01528026 4.00645167 2.53580025 2.66638302 0 1 C0 0.67 0 0.34 0 0 Z " fill="#E317E3" transform="translate(32,51)"/>
<path d="M0 0 C3.15140423 0.34069235 4.60781561 0.58076841 6.8125 2.9375 C8 5 8 5 8 7 C9.65 7 11.3 7 13 7 C13 7.66 13 8.32 13 9 C10.1875 9.3125 10.1875 9.3125 7 9 C5.11400657 6.61107499 4 5.08148442 4 2 C3.01 2.33 2.02 2.66 1 3 C0.67 2.01 0.34 1.02 0 0 Z " fill="#2759FF" transform="translate(39,22)"/>
<path d="M0 0 C3.465 1.485 3.465 1.485 7 3 C7 4.65 7 6.3 7 8 C6.67 7.34 6.34 6.68 6 6 C2.97065509 5.34227572 2.97065509 5.34227572 0 5 C0 3.35 0 1.7 0 0 Z " fill="#5027FF" transform="translate(32,24)"/>
<path d="M0 0 C0.54269531 0.27714844 1.08539063 0.55429688 1.64453125 0.83984375 C2.71767578 1.38318359 2.71767578 1.38318359 3.8125 1.9375 C4.87404297 2.47697266 4.87404297 2.47697266 5.95703125 3.02734375 C8.11810285 4.10730516 8.11810285 4.10730516 11 5 C11 5.66 11 6.32 11 7 C7.7 6.34 4.4 5.68 1 5 C1 4.34 1 3.68 1 3 C0.34 3 -0.32 3 -1 3 C-0.67 2.01 -0.34 1.02 0 0 Z " fill="#0777FF" transform="translate(32,13)"/>
<path d="M0 0 C3.3 0 6.6 0 10 0 C10.33 0.99 10.66 1.98 11 3 C10.34 3.66 9.68 4.32 9 5 C8.34 5 7.68 5 7 5 C7 4.34 7 3.68 7 3 C4.69 2.34 2.38 1.68 0 1 C0 0.67 0 0.34 0 0 Z " fill="#6618FF" transform="translate(49,40)"/>
<path d="M0 0 C5.61 0 11.22 0 17 0 C17.33 0.99 17.66 1.98 18 3 C17.34 3.66 16.68 4.32 16 5 C15.34 4.01 14.68 3.02 14 2 C10.65386488 1.41312216 10.65386488 1.41312216 6.875 1.3125 C5.59367187 1.24675781 4.31234375 1.18101563 2.9921875 1.11328125 C2.00476562 1.07589844 1.01734375 1.03851563 0 1 C0 0.67 0 0.34 0 0 Z " fill="#4E2DFF" transform="translate(44,37)"/>
<path d="M0 0 C0.33 0.66 0.66 1.32 1 2 C3.31974234 2.41755362 5.65785793 2.7355646 8 3 C10.33333333 3.33333333 12.66666667 3.66666667 15 4 C15 4.33 15 4.66 15 5 C10.71 5 6.42 5 2 5 C2 4.34 2 3.68 2 3 C1.34 3 0.68 3 0 3 C0 2.01 0 1.02 0 0 Z " fill="#5F1AFF" transform="translate(40,32)"/>
<path d="M0 0 C2.97 0.495 2.97 0.495 6 1 C6 1.66 6 2.32 6 3 C6.804375 3.12375 7.60875 3.2475 8.4375 3.375 C9.7059375 3.684375 9.7059375 3.684375 11 4 C11.33 4.66 11.66 5.32 12 6 C10.3713449 5.57630928 8.74712622 5.1355377 7.125 4.6875 C6.22007813 4.44386719 5.31515625 4.20023438 4.3828125 3.94921875 C2 3 2 3 0 0 Z " fill="#FA0328" transform="translate(11,55)"/>
<path d="M0 0 C0.99 0.33 1.98 0.66 3 1 C2.67 3.97 2.34 6.94 2 10 C1.34 10 0.68 10 0 10 C0 6.7 0 3.4 0 0 Z " fill="#9E03FB" transform="translate(34,33)"/>
<path d="M0 0 C0.66 0 1.32 0 2 0 C2 0.66 2 1.32 2 2 C3.918125 2.185625 3.918125 2.185625 5.875 2.375 C9.75 2.75 9.75 2.75 12 5 C8.94925785 5.28780586 6.03816258 5.45787911 3 5 C0.9375 2.5 0.9375 2.5 0 0 Z " fill="#1767FF" transform="translate(31,16)"/>
<path d="M0 0 C1.32 0.33 2.64 0.66 4 1 C4 1.66 4 2.32 4 3 C4.66 3 5.32 3 6 3 C6.33 2.34 6.66 1.68 7 1 C7.33 3.31 7.66 5.62 8 8 C6.68 7.34 5.36 6.68 4 6 C4 5.34 4 4.68 4 4 C3.34 4 2.68 4 2 4 C1.34 2.68 0.68 1.36 0 0 Z " fill="#C10EED" transform="translate(25,40)"/>
<path d="M0 0 C4.95696581 1.23924145 7.11658466 2.78577758 10 7 C3.47692308 5.64615385 3.47692308 5.64615385 1.0625 2.375 C0.711875 1.59125 0.36125 0.8075 0 0 Z " fill="#EA13B7" transform="translate(0,36)"/>
<path d="M0 0 C5.57142857 5.14285714 5.57142857 5.14285714 6 9 C4.62437146 7.71034824 3.29233607 6.37310707 2 5 C2 4.34 2 3.68 2 3 C-0.97 2.505 -0.97 2.505 -4 2 C-2.68 1.34 -1.36 0.68 0 0 Z " fill="#00E5FF" transform="translate(47,2)"/>
<path d="M0 0 C2.475 0.495 2.475 0.495 5 1 C5.33 2.32 5.66 3.64 6 5 C6.66 5 7.32 5 8 5 C8 5.66 8 6.32 8 7 C7.01 7 6.02 7 5 7 C5 6.01 5 5.02 5 4 C2.525 3.01 2.525 3.01 0 2 C0 1.34 0 0.68 0 0 Z " fill="#A909F5" transform="translate(3,22)"/>
<path d="M0 0 C5.75 1.875 5.75 1.875 8 3 C8 3.99 8 4.98 8 6 C6.68 5.67 5.36 5.34 4 5 C4 4.34 4 3.68 4 3 C2.68 2.34 1.36 1.68 0 1 C0 0.67 0 0.34 0 0 Z " fill="#F00D7D" transform="translate(9,46)"/>
<path d="M0 0 C2.64 0.66 5.28 1.32 8 2 C7.67 3.32 7.34 4.64 7 6 C4.0625 4.6875 4.0625 4.6875 1 3 C0.67 2.01 0.34 1.02 0 0 Z " fill="#3E40FF" transform="translate(32,22)"/>
</svg>
