<?xml version="1.0" encoding="UTF-8"?>
<svg version="1.1" xmlns="http://www.w3.org/2000/svg" width="30" height="30">
<path d="M0 0 C4.61581142 2.18643699 6.72864085 4.49599804 9 9 C9.82885269 14.54808604 9.7240695 19.47140883 7.3125 24.5625 C4.21064779 27.8320199 1.61649202 29.75850523 -2.90234375 30.43359375 C-9.05071801 30.44150672 -13.31314296 30.4465054 -18 26 C-21.88937897 20.55860924 -21.79042609 15.48149391 -21 9 C-16.63929544 -0.20593186 -9.3488659 -1.1401056 0 0 Z " fill="#EAE7E6" transform="translate(21,0)"/>
<path d="M0 0 C4.15654256 1.66868497 7.13965542 4.62756804 10.3125 7.6875 C10.87517578 8.19216797 11.43785156 8.69683594 12.01757812 9.21679688 C13.60057677 10.74941857 14.87266754 12.10522286 16 14 C16.00478411 18.55447272 15.574202 20.32002395 12.625 23.8125 C7.75824176 27.86813187 7.75824176 27.86813187 4.125 28.5 C0.6653767 27.94646027 0.25438125 27.56493651 -1.875 25 C-2.57625 24.01 -3.2775 23.02 -4 22 C-1.0703125 22.04882812 -1.0703125 22.04882812 1.859375 22.09765625 C4.03292403 21.99849799 5.91306537 21.59693851 8 21 C7.93970033 19.08247047 7.85083293 17.16582574 7.75 15.25 C7.70359375 14.18265625 7.6571875 13.1153125 7.609375 12.015625 C6.88648922 8.43826716 5.82718919 7.23643324 3 5 C0.8618034 4.2127322 0.8618034 4.2127322 -1 4 C-0.67 2.68 -0.34 1.36 0 0 Z " fill="#30302D" transform="translate(14,2)"/>
<path d="M0 0 C2.91682137 0.31533204 4.54790258 0.54790258 6.65625 2.65625 C8.39570049 5.69017528 8.3007392 7.77733109 8.1875 11.25 C8.16042969 12.32765625 8.13335937 13.4053125 8.10546875 14.515625 C8.07066406 15.33546875 8.03585938 16.1553125 8 17 C5.35261084 18.4606285 4.10551666 19 1 19 C0.67 16.03 0.34 13.06 0 10 C-1.32 9.67 -2.64 9.34 -4 9 C-3.67 7.35 -3.34 5.7 -3 4 C-1.68 4 -0.36 4 1 4 C0.67 2.68 0.34 1.36 0 0 Z " fill="#FADD83" transform="translate(14,6)"/>
<path d="M0 0 C0.99 0.33 1.98 0.66 3 1 C3 1.99 3 2.98 3 4 C1.68 4.33 0.36 4.66 -1 5 C-1 6.32 -1 7.64 -1 9 C-0.01 9.33 0.98 9.66 2 10 C2.33 12.97 2.66 15.94 3 19 C1.00045254 19.04254356 -1.00041636 19.04080783 -3 19 C-4.92964064 17.07035936 -4.26230473 13.75274242 -4.3125 11.1875 C-4.34988281 9.94355469 -4.38726563 8.69960937 -4.42578125 7.41796875 C-3.93707221 3.4948457 -3.05510526 2.39226191 0 0 Z " fill="#FAE7B3" transform="translate(12,6)"/>
<path d="M0 0 C2.64 0 5.28 0 8 0 C8.33 1.65 8.66 3.3 9 5 C7.68 5.33 6.36 5.66 5 6 C5 6.99 5 7.98 5 9 C4.34 9 3.68 9 3 9 C3 8.01 3 7.02 3 6 C1.68 5.67 0.36 5.34 -1 5 C-0.67 3.35 -0.34 1.7 0 0 Z " fill="#F47731" transform="translate(11,10)"/>
<path d="M0 0 C2.91682137 0.31533204 4.54790258 0.54790258 6.65625 2.65625 C8.39570049 5.69017528 8.3007392 7.77733109 8.1875 11.25 C8.16042969 12.32765625 8.13335937 13.4053125 8.10546875 14.515625 C8.07066406 15.33546875 8.03585938 16.1553125 8 17 C7.67 17 7.34 17 7 17 C6.34 13.04 5.68 9.08 5 5 C3.35 5 1.7 5 0 5 C0 3.35 0 1.7 0 0 Z " fill="#E4C075" transform="translate(14,6)"/>
<path d="M0 0 C4.2742558 1.5830577 6.26531794 4.50568404 9 8 C8.01 8.495 8.01 8.495 7 9 C6.4225 8.360625 5.845 7.72125 5.25 7.0625 C3.01937599 5.01776132 1.92563609 4.41794801 -1 4 C-0.67 2.68 -0.34 1.36 0 0 Z " fill="#70404B" transform="translate(14,2)"/>
<path d="M0 0 C1.98 0.495 1.98 0.495 4 1 C4 2.32 4 3.64 4 5 C2.35 4.67 0.7 4.34 -1 4 C-0.67 2.68 -0.34 1.36 0 0 Z " fill="#D93D07" transform="translate(16,10)"/>
<path d="M0 0 C0.99 0.33 1.98 0.66 3 1 C3 1.99 3 2.98 3 4 C2.38125 4.103125 1.7625 4.20625 1.125 4.3125 C-1.36526484 4.87525373 -1.36526484 4.87525373 -3 8 C-3.36923077 3.44615385 -3.36923077 3.44615385 -1.5 1.1875 C-1.005 0.795625 -0.51 0.40375 0 0 Z " fill="#FEE1AA" transform="translate(12,6)"/>
</svg>
