<?xml version="1.0" encoding="UTF-8"?>
<svg version="1.1" xmlns="http://www.w3.org/2000/svg" width="64" height="64">
<path d="M0 0 C21.12 0 42.24 0 64 0 C64 21.12 64 42.24 64 64 C42.88 64 21.76 64 0 64 C0 42.88 0 21.76 0 0 Z " fill="#181917" transform="translate(0,0)"/>
<path d="M0 0 C21.12 0 42.24 0 64 0 C64 21.12 64 42.24 64 64 C42.88 64 21.76 64 0 64 C0 42.88 0 21.76 0 0 Z M8 14 C2.90894762 22.00442917 2.28387661 29.62901394 3 39 C4.80816017 46.36335107 9.71363385 53.27374506 16.125 57.3515625 C24.1628787 61.45915493 32.76395601 62.53133625 41.640625 60.3515625 C49.60765098 57.0923246 55.79691768 51.67058816 59.30859375 43.796875 C62.11714696 36.49781017 62.4312509 27.44305775 59.4375 20.125 C54.68335744 11.16719455 48.50385521 6.16795174 39 3 C26.11318253 1.989594 16.77480379 4.15316136 8 14 Z " fill="#04FB82" transform="translate(0,0)"/>
<path d="M0 0 C8.91 0 17.82 0 27 0 C24.77941176 4.44117647 24.77941176 4.44117647 20.8125 5.875 C13.47968902 8.91658398 9.01598477 12.91693792 5.7265625 20.16796875 C2.8271484 27.47885699 2.57556865 36.61127282 5.625 43.9375 C10.35237494 52.83025425 16.09437085 56.9963044 25.5 60.1875 C29.34667657 61.08047849 33.07475039 61.58681583 37 62 C36.505 62.99 36.505 62.99 36 64 C24.12 64 12.24 64 0 64 C0 42.88 0 21.76 0 0 Z " fill="#04FB7E" transform="translate(0,0)"/>
<path d="M0 0 C0.99 0 1.98 0 3 0 C3.20753906 0.70125 3.41507812 1.4025 3.62890625 2.125 C6.3603711 10.53654028 9.96710267 17.12503688 18 21.375 C24.19871682 24.0809783 30.31751049 25.29658005 37 26 C36.67 26.66 36.34 27.32 36 28 C24.12 28 12.24 28 0 28 C0 18.76 0 9.52 0 0 Z " fill="#03FC5B" transform="translate(0,36)"/>
<path d="M0 0 C2.31839409 -0.00362816 4.2446722 0.31228541 6.49609375 0.80859375 C2.3498036 8.50815019 -1.9345911 16.12048666 -6.31030273 23.69189453 C-7.3346829 25.46523307 -8.35590153 27.24036827 -9.37695312 29.015625 C-10.02341797 30.13582031 -10.66988281 31.25601563 -11.3359375 32.41015625 C-11.92093018 33.42416504 -12.50592285 34.43817383 -13.10864258 35.48291016 C-14.50390625 37.80859375 -14.50390625 37.80859375 -15.50390625 38.80859375 C-17.02318663 38.88039339 -18.54558107 38.89251382 -20.06640625 38.87109375 C-20.89269531 38.86207031 -21.71898437 38.85304687 -22.5703125 38.84375 C-23.20839844 38.83214844 -23.84648437 38.82054687 -24.50390625 38.80859375 C-20.62833668 31.61530175 -16.69040899 24.4587015 -12.5703125 17.40234375 C-11.15523707 14.97535966 -9.82402926 12.52143509 -8.53125 10.02734375 C-3.81111887 1.23073573 -3.81111887 1.23073573 0 0 Z " fill="#09F878" transform="translate(41.50390625,12.19140625)"/>
<path d="M0 0 C3.07416886 -0.35471179 5.93741236 -0.5051691 9 0 C11.625 2.625 11.625 2.625 13 6 C12.91163068 10.418466 11.68016809 12.61528908 9 16 C7.86968397 14.27430361 6.74596893 12.54428261 5.625 10.8125 C4.99851562 9.84957031 4.37203125 8.88664062 3.7265625 7.89453125 C2.18011688 5.30196064 1.02491925 2.83146884 0 0 Z " fill="#F5040B" transform="translate(16,17)"/>
<path d="M0 0 C3 1 3 1 4.38671875 3.28515625 C4.81597656 4.20167969 5.24523438 5.11820313 5.6875 6.0625 C6.34298828 7.44115234 6.34298828 7.44115234 7.01171875 8.84765625 C7.33785156 9.55792969 7.66398437 10.26820312 8 11 C5.03 11 2.06 11 -1 11 C-2.1875 8.875 -2.1875 8.875 -3 6 C-1.625 2.6875 -1.625 2.6875 0 0 Z " fill="#EF062B" transform="translate(35,38)"/>
<path d="M0 0 C0.33 0 0.66 0 1 0 C0.67416887 7.03795243 -0.46255735 13.43661033 -5.59765625 18.609375 C-7.01479895 19.80205301 -8.50203077 20.91056783 -10 22 C-9.34 20.35 -8.68 18.7 -8 17 C-7.34 17 -6.68 17 -6 17 C-5.814375 15.824375 -5.814375 15.824375 -5.625 14.625 C-5 12 -5 12 -3 10 C-2.65259077 8.00239695 -2.32033957 6.00212229 -2 4 C-0.9375 1.625 -0.9375 1.625 0 0 Z " fill="#0C170D" transform="translate(60,33)"/>
<path d="M0 0 C-4.49071824 2.99381216 -7.6905491 3.15984661 -13 3.1875 C-14.2375 3.20167969 -15.475 3.21585938 -16.75 3.23046875 C-20 3 -20 3 -23 1 C-20.51447065 0.17149022 -19.15267335 -0.03523231 -16.5625 0.5625 C-13.99140518 1.24502852 -13.99140518 1.24502852 -11.75 0 C-7.72732999 -1.46278909 -4.15779095 -0.67031924 0 0 Z " fill="#0A1109" transform="translate(45,58)"/>
<path d="M0 0 C2.97 0.33 5.94 0.66 9 1 C9 1.33 9 1.66 9 2 C8.030625 2.268125 7.06125 2.53625 6.0625 2.8125 C5.051875 3.204375 4.04125 3.59625 3 4 C2.67 4.99 2.34 5.98 2 7 C3.32 7.66 4.64 8.32 6 9 C1.16743695 8.58578031 -0.82679218 6.53586014 -4 3 C-3.01 3 -2.02 3 -1 3 C-0.67 2.01 -0.34 1.02 0 0 Z " fill="#091508" transform="translate(16,50)"/>
<path d="M0 0 C2.64 0 5.28 0 8 0 C8 0.66 8 1.32 8 2 C8.66 2.33 9.32 2.66 10 3 C6.37 3 2.74 3 -1 3 C-0.67 2.01 -0.34 1.02 0 0 Z " fill="#10F692" transform="translate(27,0)"/>
<path d="M0 0 C-0.33 0.99 -0.66 1.98 -1 3 C-3.31074405 3.74118205 -5.64811553 4.40206327 -8 5 C-9.1446875 5.5878125 -9.1446875 5.5878125 -10.3125 6.1875 C-10.869375 6.455625 -11.42625 6.72375 -12 7 C-12.66 6.67 -13.32 6.34 -14 6 C-9.71736881 2.94097772 -5.44371827 0 0 0 Z " fill="#0D1A10" transform="translate(27,3)"/>
<path d="M0 0 C1.19156292 4.76625167 0.3415946 5.87879351 -2 10 C-2.99 9.01 -3.98 8.02 -5 7 C-3.35 4.69 -1.7 2.38 0 0 Z " fill="#E50817" transform="translate(28,23)"/>
</svg>
