<?xml version="1.0" encoding="UTF-8"?>
<svg version="1.1" xmlns="http://www.w3.org/2000/svg" width="96" height="96">
<path d="M0 0 C0.61875 -0.495 1.2375 -0.99 1.875 -1.5 C4 -3 4 -3 6 -3 C5.5206753 1.31392226 4.2542015 3.16569547 1 6 C2.68837273 10.91162977 4.67143348 15.53592057 7.3046875 20.015625 C7.71533447 20.71429688 8.12598145 21.41296875 8.54907227 22.1328125 C9.38114165 23.52715177 10.22771786 24.91295156 11.08959961 26.2890625 C11.47897705 26.94132812 11.86835449 27.59359375 12.26953125 28.265625 C12.80477417 29.12849121 12.80477417 29.12849121 13.35083008 30.00878906 C14.61583654 33.88896683 13.3747836 37.19394594 11.70898438 40.77661133 C11.17595703 41.7023999 10.64292969 42.62818848 10.09375 43.58203125 C9.51496094 44.59587891 8.93617187 45.60972656 8.33984375 46.65429688 C7.73269531 47.69650391 7.12554687 48.73871094 6.5 49.8125 C5.89285156 50.87404297 5.28570312 51.93558594 4.66015625 53.02929688 C0.1896734 60.8103266 0.1896734 60.8103266 -1 62 C-3.52094076 62.08847743 -6.01430893 62.11527301 -8.53515625 62.09765625 C-9.66503212 62.09553383 -9.66503212 62.09553383 -10.81773376 62.09336853 C-13.2326956 62.08775376 -15.64756601 62.07519883 -18.0625 62.0625 C-19.69596221 62.0574869 -21.32942586 62.05292366 -22.96289062 62.04882812 C-26.97529585 62.03777954 -30.98763241 62.02050506 -35 62 C-37.01043671 58.55888398 -39.0035272 55.10835257 -40.98144531 51.6484375 C-41.65584772 50.47421432 -42.33483095 49.30260921 -43.01855469 48.13378906 C-44.003716 46.44781328 -44.97081232 44.75132302 -45.9375 43.0546875 C-46.52402344 42.03874512 -47.11054687 41.02280273 -47.71484375 39.97607422 C-49.15623137 36.6382104 -49.42142404 34.5977572 -49 31 C-47.99023438 28.57470703 -47.99023438 28.57470703 -46.59375 26.2578125 C-46.09746094 25.41992188 -45.60117187 24.58203125 -45.08984375 23.71875 C-44.56519531 22.8628125 -44.04054688 22.006875 -43.5 21.125 C-42.97535156 20.24585937 -42.45070313 19.36671875 -41.91015625 18.4609375 C-40.61828763 16.29999362 -39.31480027 14.14704086 -38 12 C-41.38317487 11.02408417 -43.5657338 11.14143345 -47 12 C-44.94307408 4.45793829 -38.24966617 -0.14582651 -31.89453125 -4.0546875 C-21.07709563 -9.45225331 -9.91474179 -5.0024379 0 0 Z M-4 3 C-4.33 3.66 -4.66 4.32 -5 5 C-4.01 5 -3.02 5 -2 5 C-2 4.34 -2 3.68 -2 3 C-2.66 3 -3.32 3 -4 3 Z " fill="#E08134" transform="translate(65,21)"/>
<path d="M0 0 C0.61875 -0.495 1.2375 -0.99 1.875 -1.5 C4 -3 4 -3 6 -3 C5.5206753 1.31392226 4.2542015 3.16569547 1 6 C3.38453042 12.54860177 3.38453042 12.54860177 6.8125 18.5625 C8.65779104 22.35020266 7.85636407 25.96398784 7 30 C6.505 30.99 6.505 30.99 6 32 C5.01 31.505 5.01 31.505 4 31 C4.66 29.68 5.32 28.36 6 27 C3.03 27.495 3.03 27.495 0 28 C0 28.66 0 29.32 0 30 C-4.75 31.125 -4.75 31.125 -7 30 C-7.495 30.99 -7.495 30.99 -8 32 C-8.33 31.34 -8.66 30.68 -9 30 C-10.64363134 29.27840576 -12.31050386 28.60648579 -14 28 C-14 27.01 -14 26.02 -14 25 C-14.99 25.66 -15.98 26.32 -17 27 C-16.01 27.99 -15.02 28.98 -14 30 C-16.475 30.495 -16.475 30.495 -19 31 C-19.33 31.99 -19.66 32.98 -20 34 C-19.34 34 -18.68 34 -18 34 C-18.66 35.98 -19.32 37.96 -20 40 C-21.76462683 36.91190305 -22 35.76687864 -22 32 C-22.99 32 -23.98 32 -25 32 C-25 32.66 -25 33.32 -25 34 C-25.99 34 -26.98 34 -28 34 C-28.33 33.34 -28.66 32.68 -29 32 C-29.86625 32.2475 -29.86625 32.2475 -30.75 32.5 C-33 33 -33 33 -37 33 C-37.33 33.66 -37.66 34.32 -38 35 C-38.66 35 -39.32 35 -40 35 C-39.67 31.7 -39.34 28.4 -39 25 C-41.475 26.485 -41.475 26.485 -44 28 C-42.94513949 21.87903309 -41.34782974 17.24493326 -38 12 C-41.32534757 10.89155081 -43.62182575 11.15545644 -47 12 C-44.94307408 4.45793829 -38.24966617 -0.14582651 -31.89453125 -4.0546875 C-21.07709563 -9.45225331 -9.91474179 -5.0024379 0 0 Z M-4 3 C-4.33 3.66 -4.66 4.32 -5 5 C-4.01 5 -3.02 5 -2 5 C-2 4.34 -2 3.68 -2 3 C-2.66 3 -3.32 3 -4 3 Z " fill="#E39443" transform="translate(65,21)"/>
<path d="M0 0 C1.5625 1.625 1.5625 1.625 3 4 C2.63286311 8.49781918 1.33000637 11.69798923 -0.90625 15.58203125 C-1.48503906 16.59587891 -2.06382813 17.60972656 -2.66015625 18.65429688 C-3.26730469 19.69650391 -3.87445313 20.73871094 -4.5 21.8125 C-5.41072266 23.40481445 -5.41072266 23.40481445 -6.33984375 25.02929688 C-10.8103266 32.8103266 -10.8103266 32.8103266 -12 34 C-14.52094076 34.08847743 -17.01430893 34.11527301 -19.53515625 34.09765625 C-20.66503212 34.09553383 -20.66503212 34.09553383 -21.81773376 34.09336853 C-24.2326956 34.08775376 -26.64756601 34.07519883 -29.0625 34.0625 C-30.69596221 34.0574869 -32.32942586 34.05292366 -33.96289062 34.04882812 C-37.9753243 34.03862875 -41.98755936 34.01905645 -46 34 C-48.97 28.72 -51.94 23.44 -55 18 C-54.34 17.67 -53.68 17.34 -53 17 C-52.5875 17.474375 -52.175 17.94875 -51.75 18.4375 C-49.817815 20.16266518 -48.51807725 20.56584875 -46 21 C-46 21.99 -46 22.98 -46 24 C-43.14921909 24.76716851 -43.14921909 24.76716851 -40 25 C-38.10041919 23.68681738 -38.10041919 23.68681738 -37 22 C-37.66 21.67 -38.32 21.34 -39 21 C-37.865625 20.855625 -36.73125 20.71125 -35.5625 20.5625 C-32.19222799 20.38828522 -32.19222799 20.38828522 -31 19 C-28.34536879 18.54540142 -25.67810862 18.29756762 -23 18 C-23 17.34 -23 16.68 -23 16 C-22.01 16 -21.02 16 -20 16 C-20 15.34 -20 14.68 -20 14 C-19.01 13.67 -18.02 13.34 -17 13 C-17.33 15.97 -17.66 18.94 -18 22 C-17.34 22 -16.68 22 -16 22 C-16 22.66 -16 23.32 -16 24 C-15.34 24 -14.68 24 -14 24 C-13.91363281 23.24074219 -13.82726563 22.48148438 -13.73828125 21.69921875 C-12.57632933 13.48027444 -12.57632933 13.48027444 -9.375 10.8125 C-8.59125 10.544375 -7.8075 10.27625 -7 10 C-7 11.65 -7 13.3 -7 15 C-6.17361624 12.10765685 -6 10.11257569 -6 7 C-5.34 7 -4.68 7 -4 7 C-4 6.01 -4 5.02 -4 4 C-2 1.8125 -2 1.8125 0 0 Z " fill="#DB792F" transform="translate(76,49)"/>
<path d="M0 0 C0.61875 -0.495 1.2375 -0.99 1.875 -1.5 C4 -3 4 -3 6 -3 C5.51003752 1.40966229 4.12314463 2.97445364 1 6 C0.2127322 8.1381966 0.2127322 8.1381966 0 10 C-0.99 9.67 -1.98 9.34 -3 9 C-2.67 7.02 -2.34 5.04 -2 3 C-2.66 3.66 -3.32 4.32 -4 5 C-4 5.33 -4 5.66 -4 6 C-8.01935181 6.67580829 -12.04068815 7.33900261 -16.0625 8 C-17.19623047 8.19078125 -18.32996094 8.3815625 -19.49804688 8.578125 C-25.0636521 9.48679524 -30.35857867 10.26201086 -36 10 C-36.33 10.66 -36.66 11.32 -37 12 C-37.721875 11.814375 -38.44375 11.62875 -39.1875 11.4375 C-42.12826973 10.98004693 -44.14103058 11.26483643 -47 12 C-44.94307408 4.45793829 -38.24966617 -0.14582651 -31.89453125 -4.0546875 C-21.07709563 -9.45225331 -9.91474179 -5.0024379 0 0 Z " fill="#4F8634" transform="translate(65,21)"/>
<path d="M0 0 C0.33 1.32 0.66 2.64 1 4 C3.475 4.495 3.475 4.495 6 5 C7.125 10.75 7.125 10.75 6 13 C5.34 13 4.68 13 4 13 C3.67 12.34 3.34 11.68 3 11 C2.34 11.66 1.68 12.32 1 13 C0.01 13 -0.98 13 -2 13 C-2 15.15634036 -1.5534764 16.92446352 -1 19 C-1.99 18.67 -2.98 18.34 -4 18 C-4.33 17.34 -4.66 16.68 -5 16 C-5.99 16.99 -6.98 17.98 -8 19 C-8.2475 18.21625 -8.495 17.4325 -8.75 16.625 C-10.15389099 13.67682892 -11.00675737 13.0975223 -14 12 C-13.38125 12.7734375 -13.38125 12.7734375 -12.75 13.5625 C-12 16 -12 16 -12.7578125 17.82421875 C-13.77937269 19.58515992 -14.88590741 21.29609368 -16 23 C-17.32 22.67 -18.64 22.34 -20 22 C-19.34 21.34 -18.68 20.68 -18 20 C-18.32041397 17.39719432 -18.32041397 17.39719432 -19 15 C-19.99 15 -20.98 15 -22 15 C-22 14.01 -22 13.02 -22 12 C-22.66 11.34 -23.32 10.68 -24 10 C-23.01 10 -22.02 10 -21 10 C-21 9.01 -21 8.02 -21 7 C-20.01 6.34 -19.02 5.68 -18 5 C-18.99 4.34 -19.98 3.68 -21 3 C-10.605 1.515 -10.605 1.515 0 0 Z " fill="#E8A555" transform="translate(61,26)"/>
<path d="M0 0 C-0.99 1.485 -0.99 1.485 -2 3 C-2.66 3 -3.32 3 -4 3 C-4.69159401 4.84725052 -4.69159401 4.84725052 -5 7 C-4.01 8.485 -4.01 8.485 -3 10 C-2.34 10 -1.68 10 -1 10 C-0.67 9.34 -0.34 8.68 0 8 C0 8.66 0 9.32 0 10 C0.66 10.33 1.32 10.66 2 11 C1.01 11.33 0.02 11.66 -1 12 C-0.67 13.98 -0.34 15.96 0 18 C-0.99 17.67 -1.98 17.34 -3 17 C-3 18.65 -3 20.3 -3 22 C-3.66 22 -4.32 22 -5 22 C-6.125 17.25 -6.125 17.25 -5 15 C-6.98 15.99 -6.98 15.99 -9 17 C-8.67 15.35 -8.34 13.7 -8 12 C-8.66 12 -9.32 12 -10 12 C-10.33 12.66 -10.66 13.32 -11 14 C-13.33163378 14.67258667 -15.6652039 15.33847444 -18 16 C-20.8334743 17.51462733 -20.8334743 17.51462733 -23 19 C-21.94513949 12.87903309 -20.34782974 8.24493326 -17 3 C-16.34 3 -15.68 3 -15 3 C-15 2.34 -15 1.68 -15 1 C-9.91913204 0.15318867 -5.15171623 -0.09038099 0 0 Z " fill="#E59A42" transform="translate(44,30)"/>
<path d="M0 0 C0 0.66 0 1.32 0 2 C-10.395 2.495 -10.395 2.495 -21 3 C-18.01193893 1.50596946 -15.10343799 0.20689255 -12 -1 C-19.5369553 -1.41110665 -25.64800919 -0.23466054 -32 4 C-34.2236068 5.9254644 -34.2236068 5.9254644 -35 9 C-38.0625 10.6875 -38.0625 10.6875 -41 12 C-40.46982819 8.05022002 -38.71422924 6.48457778 -35.75 3.9375 C-34.98171875 3.26589844 -34.2134375 2.59429687 -33.421875 1.90234375 C-23.04321081 -6.24992957 -11.58462594 -5.74105356 0 0 Z " fill="#6F953B" transform="translate(61,19)"/>
<path d="M0 0 C0.66 0 1.32 0 2 0 C2.45375 0.474375 2.9075 0.94875 3.375 1.4375 C5.22977487 3.22093737 6.50135592 3.5691993 9 4 C9 4.99 9 5.98 9 7 C11.31 7.33 13.62 7.66 16 8 C16 8.66 16 9.32 16 10 C16.66 10 17.32 10 18 10 C18.33 9.01 18.66 8.02 19 7 C19.66 7 20.32 7 21 7 C21 7.66 21 8.32 21 9 C20.34 9 19.68 9 19 9 C19 9.66 19 10.32 19 11 C18.34 11 17.68 11 17 11 C17 11.66 17 12.32 17 13 C17.66 13 18.32 13 19 13 C19 13.66 19 14.32 19 15 C16.69 14.67 14.38 14.34 12 14 C12 14.66 12 15.32 12 16 C13.32 15.67 14.64 15.34 16 15 C16.33 15.66 16.66 16.32 17 17 C14.36 17 11.72 17 9 17 C7.49743011 14.35559624 5.9978388 11.70958148 4.5 9.0625 C4.07074219 8.30775391 3.64148438 7.55300781 3.19921875 6.77539062 C2.79316406 6.05673828 2.38710938 5.33808594 1.96875 4.59765625 C1.59169922 3.93258057 1.21464844 3.26750488 0.82617188 2.58227539 C0 1 0 1 0 0 Z " fill="#D2732D" transform="translate(21,66)"/>
<path d="M0 0 C-1.3899131 2.77982621 -3.18658353 2.87463341 -6 4 C-6.33 4.66 -6.66 5.32 -7 6 C-9.26599629 6.76788877 -11.56451409 7.44117301 -13.875 8.0625 C-15.13054688 8.40410156 -16.38609375 8.74570312 -17.6796875 9.09765625 C-18.77539062 9.39542969 -19.87109375 9.69320313 -21 10 C-21.99 10.33 -22.98 10.66 -24 11 C-23.61063975 8.65385491 -23.30189864 7.3087212 -21.6171875 5.5859375 C-14.6488406 0.74246768 -8.36454821 -0.34141013 0 0 Z " fill="#6B983B" transform="translate(50,17)"/>
<path d="M0 0 C0.33 1.32 0.66 2.64 1 4 C2.65 4.33 4.3 4.66 6 5 C7.125 10.75 7.125 10.75 6 13 C5.34 13 4.68 13 4 13 C3.67 12.34 3.34 11.68 3 11 C2.34 11.66 1.68 12.32 1 13 C0.731875 12.38125 0.46375 11.7625 0.1875 11.125 C-0.95556848 8.7004767 -0.95556848 8.7004767 -4 7 C-3.67 5.35 -3.34 3.7 -3 2 C-4.32 1.67 -5.64 1.34 -7 1 C-3.535 0.505 -3.535 0.505 0 0 Z " fill="#DDA34A" transform="translate(61,26)"/>
<path d="M0 0 C0.66 0 1.32 0 2 0 C2 1.32 2 2.64 2 4 C3.65 3.34 5.3 2.68 7 2 C6.01 3.485 6.01 3.485 5 5 C5 6.32 5 7.64 5 9 C-1.45326002 10.33935585 -1.45326002 10.33935585 -3.8125 8.875 C-5.2091667 6.6697368 -6.13587557 4.45943107 -7 2 C-6.030625 1.855625 -5.06125 1.71125 -4.0625 1.5625 C-1.13513227 1.32437659 -1.13513227 1.32437659 0 0 Z " fill="#E28531" transform="translate(34,42)"/>
<path d="M0 0 C4.77727784 5.54780652 4.77727784 5.54780652 5 9 C3.83789182 12.29263985 3.01468588 12.99020941 0 15 C-0.99 14.01 -1.98 13.02 -3 12 C-1.68 11.01 -0.36 10.02 1 9 C-0.32 9.33 -1.64 9.66 -3 10 C-4.125 8.25 -4.125 8.25 -5 6 C-4.125 3.75 -4.125 3.75 -3 2 C-2.67 3.32 -2.34 4.64 -2 6 C-1.34 6 -0.68 6 0 6 C-0.185625 5.38125 -0.37125 4.7625 -0.5625 4.125 C-1 2 -1 2 0 0 Z " fill="#DA8635" transform="translate(67,33)"/>
<path d="M0 0 C0.33 1.32 0.66 2.64 1 4 C-2.05263664 4.98120464 -3.94736336 4.98120464 -7 4 C-7.33 6.31 -7.66 8.62 -8 11 C-8.99 10.67 -9.98 10.34 -11 10 C-10.34 9.67 -9.68 9.34 -9 9 C-9 8.34 -9 7.68 -9 7 C-9.66 6.67 -10.32 6.34 -11 6 C-8.67640938 -0.47285958 -6.6985661 -0.12404752 0 0 Z " fill="#ECB05C" transform="translate(58,28)"/>
<path d="M0 0 C-0.48996248 4.40966229 -1.87685537 5.97445364 -5 9 C-5.7872678 11.1381966 -5.7872678 11.1381966 -6 13 C-6.99 12.67 -7.98 12.34 -9 12 C-8.125 7.25 -8.125 7.25 -7 5 C-7.66 4.67 -8.32 4.34 -9 4 C-2.25 0 -2.25 0 0 0 Z " fill="#667529" transform="translate(71,18)"/>
<path d="M0 0 C0.33 0.66 0.66 1.32 1 2 C3.52733235 2.65555119 3.52733235 2.65555119 6 3 C6 3.66 6 4.32 6 5 C4.02 5.33 2.04 5.66 0 6 C0 7.65 0 9.3 0 11 C-1.32 11.33 -2.64 11.66 -4 12 C-4.33 10.68 -4.66 9.36 -5 8 C-4.01 8 -3.02 8 -2 8 C-2 7.34 -2 6.68 -2 6 C-2.66 6 -3.32 6 -4 6 C-3.67 5.01 -3.34 4.02 -3 3 C-2.34 3 -1.68 3 -1 3 C-0.67 2.01 -0.34 1.02 0 0 Z " fill="#E48B3C" transform="translate(28,58)"/>
<path d="M0 0 C2.64 0 5.28 0 8 0 C8.66 1.32 9.32 2.64 10 4 C8.39796533 4.36368892 6.79325797 4.71561952 5.1875 5.0625 C4.29417969 5.25972656 3.40085937 5.45695312 2.48046875 5.66015625 C0 6 0 6 -3 5 C-2.34 5 -1.68 5 -1 5 C-0.67 3.35 -0.34 1.7 0 0 Z " fill="#5E9136" transform="translate(40,24)"/>
<path d="M0 0 C1.32 0.33 2.64 0.66 4 1 C3.40165275 5.14298667 1.99335715 8.18194377 -0.0625 11.8125 C-0.61035156 12.78832031 -1.15820312 13.76414062 -1.72265625 14.76953125 C-2.35494141 15.87361328 -2.35494141 15.87361328 -3 17 C-3.99 15.68 -4.98 14.36 -6 13 C-5.67 12.34 -5.34 11.68 -5 11 C-4.34 11.33 -3.68 11.66 -3 12 C-2.67 11.01 -2.34 10.02 -2 9 C-1.34 9 -0.68 9 0 9 C-0.185625 7.88625 -0.37125 6.7725 -0.5625 5.625 C-1 2 -1 2 0 0 Z " fill="#D1742D" transform="translate(70,62)"/>
<path d="M0 0 C-1.90272571 1.44607154 -3.80759903 2.87019236 -5.7890625 4.20703125 C-6.41554688 4.63371094 -7.04203125 5.06039063 -7.6875 5.5 C-8.28949219 5.9021875 -8.89148438 6.304375 -9.51171875 6.71875 C-11.2959201 8.03335277 -11.2959201 8.03335277 -12 11 C-15.0625 12.6875 -15.0625 12.6875 -18 14 C-17.47948372 9.99740929 -15.63217964 8.43450889 -12.625 5.875 C-11.83351563 5.19179688 -11.04203125 4.50859375 -10.2265625 3.8046875 C-6.57484594 0.84487513 -4.68460862 -0.25322209 0 0 Z " fill="#9EB255" transform="translate(38,17)"/>
<path d="M0 0 C4.455 0.99 4.455 0.99 9 2 C9 2.66 9 3.32 9 4 C-1.395 4.495 -1.395 4.495 -12 5 C-7.42164847 2.71082423 -5.08462738 2 0 2 C0 1.34 0 0.68 0 0 Z " fill="#6F9B3C" transform="translate(52,17)"/>
<path d="M0 0 C0.28875 0.598125 0.5775 1.19625 0.875 1.8125 C2.04742026 4.19327792 2.04742026 4.19327792 4 7 C3.34 7 2.68 7 2 7 C2 7.66 2 8.32 2 9 C1.21625 9.268125 0.4325 9.53625 -0.375 9.8125 C-3.28114923 10.84814432 -3.28114923 10.84814432 -5 14 C-5.74737188 8.02102497 -3.3231898 4.67620279 0 0 Z " fill="#D38A3C" transform="translate(21,44)"/>
<path d="M0 0 C0.66 0 1.32 0 2 0 C2.45375 0.474375 2.9075 0.94875 3.375 1.4375 C5.22977487 3.22093737 6.50135592 3.5691993 9 4 C9 4.99 9 5.98 9 7 C10.32 7.66 11.64 8.32 13 9 C12.01 9.495 12.01 9.495 11 10 C8.875 9.0625 8.875 9.0625 7 8 C6.67 9.32 6.34 10.64 6 12 C4.02 8.04 2.04 4.08 0 0 Z " fill="#CD702C" transform="translate(21,66)"/>
<path d="M0 0 C0.66 0.33 1.32 0.66 2 1 C2 1.99 2 2.98 2 4 C2.99 4.33 3.98 4.66 5 5 C5 5.66 5 6.32 5 7 C5.66 7 6.32 7 7 7 C7.33 6.34 7.66 5.68 8 5 C8.33 5.66 8.66 6.32 9 7 C8.67 7.66 8.34 8.32 8 9 C5.03 8.505 5.03 8.505 2 8 C1.01 9.485 1.01 9.485 0 11 C-0.66 11 -1.32 11 -2 11 C-1.34 7.37 -0.68 3.74 0 0 Z " fill="#E59E4B" transform="translate(27,45)"/>
<path d="M0 0 C-1.3899131 2.77982621 -3.18658353 2.87463341 -6 4 C-6.33 4.66 -6.66 5.32 -7 6 C-8.65 6 -10.3 6 -12 6 C-12.66 4.68 -13.32 3.36 -14 2 C-9.35150485 -0.3992233 -5.08913926 -0.19957409 0 0 Z " fill="#639337" transform="translate(50,17)"/>
<path d="M0 0 C2.64 0 5.28 0 8 0 C8.33 1.32 8.66 2.64 9 4 C7.35 4.33 5.7 4.66 4 5 C3.67 4.34 3.34 3.68 3 3 C2.67 3.99 2.34 4.98 2 6 C1.34 6 0.68 6 0 6 C-1.125 2.25 -1.125 2.25 0 0 Z " fill="#E3A64F" transform="translate(29,31)"/>
<path d="M0 0 C0 0.99 0 1.98 0 3 C-0.66 3 -1.32 3 -2 3 C-2.33 3.66 -2.66 4.32 -3 5 C-3.721875 4.814375 -4.44375 4.62875 -5.1875 4.4375 C-8.12826973 3.98004693 -10.14103058 4.26483643 -13 5 C-12 2 -12 2 -9.875 0.8125 C-6.48581699 -0.14531259 -3.50528139 -0.13746202 0 0 Z " fill="#6A8F3E" transform="translate(31,28)"/>
<path d="M0 0 C0.33 0.99 0.66 1.98 1 3 C1.66 3.33 2.32 3.66 3 4 C-0.96 5.98 -0.96 5.98 -5 8 C-4.01 8.33 -3.02 8.66 -2 9 C-2.99 10.485 -2.99 10.485 -4 12 C-5.5625 9.1875 -5.5625 9.1875 -7 6 C-6.67 5.01 -6.34 4.02 -6 3 C-5.01 2.67 -4.02 2.34 -3 2 C-3 2.66 -3 3.32 -3 4 C-2.01 4 -1.02 4 0 4 C0 2.68 0 1.36 0 0 Z " fill="#D57E30" transform="translate(24,53)"/>
<path d="M0 0 C0.99 0.99 1.98 1.98 3 3 C2 5 2 5 0 6 C0 6.33 0 6.66 0 7 C-2.31 7 -4.62 7 -7 7 C-5.75 4.5 -5.75 4.5 -4 2 C-2.68 2 -1.36 2 0 2 C0 1.34 0 0.68 0 0 Z " fill="#507C30" transform="translate(61,20)"/>
<path d="M0 0 C0.66 0.66 1.32 1.32 2 2 C1.625 5.625 1.625 5.625 1 9 C-0.32 9.33 -1.64 9.66 -3 10 C-4.125 8.25 -4.125 8.25 -5 6 C-4.125 3.75 -4.125 3.75 -3 2 C-2.67 3.32 -2.34 4.64 -2 6 C-1.34 6 -0.68 6 0 6 C-0.185625 5.38125 -0.37125 4.7625 -0.5625 4.125 C-1 2 -1 2 0 0 Z " fill="#DE923D" transform="translate(67,33)"/>
<path d="M0 0 C2.1385485 2.1385485 2.42655063 3.13275314 3 6 C1.35 6 -0.3 6 -2 6 C-2 5.01 -2 4.02 -2 3 C-3.65 3.33 -5.3 3.66 -7 4 C-4.86535088 1.54515351 -3.29279709 0.31865778 0 0 Z " fill="#4F8634" transform="translate(33,25)"/>
<path d="M0 0 C0.99 0.33 1.98 0.66 3 1 C2.01 1.495 2.01 1.495 1 2 C1.66 2.66 2.32 3.32 3 4 C2.01 4.33 1.02 4.66 0 5 C0 5.66 0 6.32 0 7 C-0.99 6.67 -1.98 6.34 -3 6 C-3.99 6 -4.98 6 -6 6 C-6 5.34 -6 4.68 -6 4 C-3.1875 1.8125 -3.1875 1.8125 0 0 Z " fill="#E18641" transform="translate(56,58)"/>
<path d="M0 0 C0.66 0 1.32 0 2 0 C1.6875 2.375 1.6875 2.375 1 5 C0.01 5.66 -0.98 6.32 -2 7 C-3.65 5.35 -5.3 3.7 -7 2 C-6.030625 1.855625 -5.06125 1.71125 -4.0625 1.5625 C-1.13513227 1.32437659 -1.13513227 1.32437659 0 0 Z " fill="#E48E39" transform="translate(34,42)"/>
<path d="M0 0 C-0.99 0.495 -0.99 0.495 -2 1 C-2.65213292 3.02463255 -2.65213292 3.02463255 -3 5 C-4.32 5 -5.64 5 -7 5 C-7 4.01 -7 3.02 -7 2 C-8.32 1.34 -9.64 0.68 -11 0 C-3.375 -1.125 -3.375 -1.125 0 0 Z " fill="#D3A54E" transform="translate(51,29)"/>
<path d="M0 0 C1.5625 1.625 1.5625 1.625 3 4 C2.82213241 8.26882213 1.82066016 10.81142765 -1 14 C0 6.57142857 0 6.57142857 1 3 C0.34 2.67 -0.32 2.34 -1 2 C-0.67 1.34 -0.34 0.68 0 0 Z " fill="#C16E2D" transform="translate(76,49)"/>
<path d="M0 0 C1.32 0 2.64 0 4 0 C5.125 3.75 5.125 3.75 4 6 C3.34 6 2.68 6 2 6 C1.67 5.34 1.34 4.68 1 4 C0.34 4.66 -0.32 5.32 -1 6 C-1.625 4.125 -1.625 4.125 -2 2 C-1.34 1.34 -0.68 0.68 0 0 Z " fill="#E8A853" transform="translate(63,33)"/>
<path d="M0 0 C0.99 0.33 1.98 0.66 3 1 C2.34 1 1.68 1 1 1 C1.226875 1.598125 1.45375 2.19625 1.6875 2.8125 C1.790625 3.534375 1.89375 4.25625 2 5 C0.5625 6.75 0.5625 6.75 -1 8 C-1 7.34 -1 6.68 -1 6 C-1.66 5.67 -2.32 5.34 -3 5 C-2.625 3.0625 -2.625 3.0625 -2 1 C-1.34 0.67 -0.68 0.34 0 0 Z " fill="#E18B46" transform="translate(62,52)"/>
<path d="M0 0 C-0.25 1.875 -0.25 1.875 -1 4 C-3 5.125 -3 5.125 -5 6 C-5.33 6.66 -5.66 7.32 -6 8 C-6.66 7.67 -7.32 7.34 -8 7 C-7.67 6.34 -7.34 5.68 -7 5 C-7.66 4.67 -8.32 4.34 -9 4 C-2.25 0 -2.25 0 0 0 Z " fill="#819B4A" transform="translate(71,18)"/>
<path d="M0 0 C0.99 0 1.98 0 3 0 C2.8125 2.375 2.8125 2.375 2 5 C-0.5625 6.3125 -0.5625 6.3125 -3 7 C-1.125 1.125 -1.125 1.125 0 0 Z " fill="#D4994C" transform="translate(25,37)"/>
<path d="M0 0 C2.97 0 5.94 0 9 0 C9.33 0.66 9.66 1.32 10 2 C7.26094655 3.36952673 5.02912668 3.12621361 2 3 C1.34 2.67 0.68 2.34 0 2 C0 1.34 0 0.68 0 0 Z " fill="#6E9D3A" transform="translate(40,26)"/>
<path d="M0 0 C0 3.69418201 -1.28179295 5.77836178 -3 9 C-3.99 7.68 -4.98 6.36 -6 5 C-5.67 4.34 -5.34 3.68 -5 3 C-4.34 3.33 -3.68 3.66 -3 4 C-2.67 3.01 -2.34 2.02 -2 1 C-1.34 0.67 -0.68 0.34 0 0 Z " fill="#BF682B" transform="translate(70,70)"/>
<path d="M0 0 C2.475 0.99 2.475 0.99 5 2 C4.34 3.65 3.68 5.3 3 7 C2.34 7 1.68 7 1 7 C0.67 4.69 0.34 2.38 0 0 Z " fill="#E7A451" transform="translate(50,30)"/>
<path d="M0 0 C0.66 0 1.32 0 2 0 C3 1 4 2 5 3 C7.09989652 4.17574711 7.09989652 4.17574711 9 5 C8.01 5 7.02 5 6 5 C5.67 5.99 5.34 6.98 5 8 C2.74754119 5.31158141 1.11786042 3.35358125 0 0 Z " fill="#BD6C2B" transform="translate(21,66)"/>
<path d="M0 0 C1.4540625 0.0309375 1.4540625 0.0309375 2.9375 0.0625 C2.9375 0.7225 2.9375 1.3825 2.9375 2.0625 C2.15375 2.330625 1.37 2.59875 0.5625 2.875 C-2.34364923 3.91064432 -2.34364923 3.91064432 -4.0625 7.0625 C-4.10504356 5.06295254 -4.10330783 3.06208364 -4.0625 1.0625 C-3.0625 0.0625 -3.0625 0.0625 0 0 Z " fill="#D07F32" transform="translate(20.0625,50.9375)"/>
<path d="M0 0 C0 2.31 0 4.62 0 7 C-0.99 7.495 -0.99 7.495 -2 8 C-2.66 6.02 -3.32 4.04 -4 2 C-1 0 -1 0 0 0 Z " fill="#E48934" transform="translate(27,45)"/>
<path d="M0 0 C0.33 1.32 0.66 2.64 1 4 C-1.475 5.485 -1.475 5.485 -4 7 C-3.6875 4.625 -3.6875 4.625 -3 2 C-2.01 1.34 -1.02 0.68 0 0 Z " fill="#E9A851" transform="translate(25,42)"/>
<path d="M0 0 C2.31 0.33 4.62 0.66 7 1 C7 1.66 7 2.32 7 3 C4.69 3 2.38 3 0 3 C0 2.01 0 1.02 0 0 Z " fill="#7BA240" transform="translate(54,18)"/>
<path d="M0 0 C0.99 0.33 1.98 0.66 3 1 C2.01 1 1.02 1 0 1 C0 0.67 0 0.34 0 0 Z M-4 1 C-2.68 1 -1.36 1 0 1 C0 2.98 0 4.96 0 7 C-0.66 7 -1.32 7 -2 7 C-2 6.01 -2 5.02 -2 4 C-2.66 3.67 -3.32 3.34 -4 3 C-4 2.34 -4 1.68 -4 1 Z " fill="#E98F3F" transform="translate(23,58)"/>
<path d="M0 0 C1.98 0.495 1.98 0.495 4 1 C3.67 1.99 3.34 2.98 3 4 C0.9375 4.6875 0.9375 4.6875 -1 5 C-0.67 3.35 -0.34 1.7 0 0 Z " fill="#E28A3E" transform="translate(52,54)"/>
<path d="M0 0 C-0.33 0.99 -0.66 1.98 -1 3 C-1.66 3 -2.32 3 -3 3 C-4.62514468 4.45833358 -4.62514468 4.45833358 -6 6 C-6.33 4.35 -6.66 2.7 -7 1 C-2.25 0 -2.25 0 0 0 Z " fill="#EAAB60" transform="translate(49,40)"/>
<path d="M0 0 C0.66 0.33 1.32 0.66 2 1 C1.01 2.485 1.01 2.485 0 4 C0.66 4.33 1.32 4.66 2 5 C0.02 5 -1.96 5 -4 5 C-3 2 -3 2 0 0 Z " fill="#E38A41" transform="translate(40,58)"/>
<path d="M0 0 C0.66 0.33 1.32 0.66 2 1 C1.625 3.4375 1.625 3.4375 1 6 C0.01 6.495 0.01 6.495 -1 7 C-1 6.01 -1 5.02 -1 4 C-1.99 3.67 -2.98 3.34 -4 3 C-2.68 2.01 -1.36 1.02 0 0 Z " fill="#DF7732" transform="translate(33,54)"/>
</svg>
