<?xml version="1.0" encoding="UTF-8"?>
<svg version="1.1" xmlns="http://www.w3.org/2000/svg" width="64" height="64">
<path d="M0 0 C3 1.33333333 3 1.33333333 6 0 C6 0.99 6 1.98 6 3 C5.34 3.66 4.68 4.32 4 5 C4.28227921 10.27862117 7.50346615 14.43469775 10.29296875 18.74023438 C12.01717178 21.56755655 13.00554876 23.54438489 12.96484375 26.88671875 C10.66986658 34.29196898 8.2674121 41.98607032 2 47 C-5.54286412 49.98119433 -14.45713588 49.98119433 -22 47 C-28.26713184 41.98629453 -30.65272652 34.30258305 -32.96875 26.90625 C-33.01394543 22.70307524 -31.26345718 20.11015204 -29.0625 16.625 C-28.67642578 15.98433594 -28.29035156 15.34367187 -27.89257812 14.68359375 C-26.94334402 13.11325585 -25.9736653 11.55530781 -25 10 C-26.98 10 -28.96 10 -31 10 C-28.18496409 3.6661692 -24.74431674 0.29568645 -18.36328125 -2.2734375 C-11.67467611 -4.329769 -6.22314853 -2.66312121 0 0 Z M0 3 C-0.33 3.66 -0.66 4.32 -1 5 C-0.01 4.67 0.98 4.34 2 4 C1.34 3.67 0.68 3.34 0 3 Z " fill="#EF7D11" transform="translate(42,6)"/>
<path d="M0 0 C3 1.33333333 3 1.33333333 6 0 C6 0.99 6 1.98 6 3 C5.34 3.66 4.68 4.32 4 5 C3.8028583 9.13997567 3.69234522 12.07703567 5 16 C4.67 16.66 4.34 17.32 4 18 C0.35526801 18.89093449 -2.42742531 19.23666047 -6 18 C-5.731875 18.556875 -5.46375 19.11375 -5.1875 19.6875 C-5.125625 20.450625 -5.06375 21.21375 -5 22 C-7.4375 24.75 -7.4375 24.75 -10 27 C-9.67 27.99 -9.34 28.98 -9 30 C-9.33 30.99 -9.66 31.98 -10 33 C-10.66 32.34 -11.32 31.68 -12 31 C-12.721875 30.401875 -13.44375 29.80375 -14.1875 29.1875 C-16 27 -16 27 -15.75 24.25 C-15.5025 23.5075 -15.255 22.765 -15 22 C-15.66 22 -16.32 22 -17 22 C-17.99 24.475 -17.99 24.475 -19 27 C-20.32 27 -21.64 27 -23 27 C-23 26.01 -23 25.02 -23 24 C-23.66 24 -24.32 24 -25 24 C-25.12375 23.360625 -25.2475 22.72125 -25.375 22.0625 C-25.58125 21.381875 -25.7875 20.70125 -26 20 C-26.66 19.67 -27.32 19.34 -28 19 C-26.125 12.25 -26.125 12.25 -25 10 C-26.98 10 -28.96 10 -31 10 C-28.18496409 3.6661692 -24.74431674 0.29568645 -18.36328125 -2.2734375 C-11.67467611 -4.329769 -6.22314853 -2.66312121 0 0 Z M0 3 C-0.33 3.66 -0.66 4.32 -1 5 C-0.01 4.67 0.98 4.34 2 4 C1.34 3.67 0.68 3.34 0 3 Z " fill="#EF8F17" transform="translate(42,6)"/>
<path d="M0 0 C3 1.33333333 3 1.33333333 6 0 C6 3.57575896 4.91159393 5.05295935 3 8 C2.12601563 7.85691406 2.12601563 7.85691406 1.234375 7.7109375 C-4.80562046 6.89420855 -9.91473894 7.30601476 -15.8828125 8.453125 C-20.88914587 9.3314291 -25.9329677 9.65860421 -31 10 C-27.93354767 3.73434849 -24.87703663 0.34912195 -18.36328125 -2.2734375 C-11.67467611 -4.329769 -6.22314853 -2.66312121 0 0 Z M0 3 C-0.33 3.66 -0.66 4.32 -1 5 C-0.01 4.67 0.98 4.34 2 4 C1.34 3.67 0.68 3.34 0 3 Z " fill="#458B23" transform="translate(42,6)"/>
<path d="M0 0 C2 2 2 2 2 3 C5.3 3 8.6 3 12 3 C11.67 4.65 11.34 6.3 11 8 C9.02 8 7.04 8 5 8 C5.804375 8.2475 6.60875 8.495 7.4375 8.75 C10 10 10 10 10.8125 12.125 C10.874375 12.74375 10.93625 13.3625 11 14 C12.32 14 13.64 14 15 14 C15 13.34 15 12.68 15 12 C15.66 11.67 16.32 11.34 17 11 C16.67 10.34 16.34 9.68 16 9 C18.26969744 6.73030256 19.97395487 6.00868171 23 5 C24.32 5 25.64 5 27 5 C25.66054785 8.60621733 24.29523983 11.8987981 22 15 C18.14786111 16.1426975 14.18868534 15.92569709 10.1875 15.9375 C9.10662109 15.99873047 8.02574219 16.05996094 6.91210938 16.12304688 C3.63539386 16.15321921 1.11147542 16.04504561 -2 15 C-4.77144113 11.97326911 -6.44871308 8.78075313 -8 5 C-6 4 -6 4 -4 3.625 C-1.62014703 3.11133621 -1.62014703 3.11133621 0 0 Z " fill="#E66F08" transform="translate(22,38)"/>
<path d="M0 0 C3.26874604 3.5850763 5.09490645 6.06486444 5 11 C3.9025829 14.51535259 2.49326005 17.27518449 0 20 C-2.64431555 21.15254557 -5.0519969 21.77823023 -7.890625 22.26953125 C-8.58671875 22.51058594 -9.2828125 22.75164063 -10 23 C-10.87377281 25.00719991 -10.87377281 25.00719991 -11 27 C-11.66 27 -12.32 27 -13 27 C-13 27.66 -13 28.32 -13 29 C-14.32 29 -15.64 29 -17 29 C-17 26.36 -17 23.72 -17 21 C-15.35 20.34 -13.7 19.68 -12 19 C-12.33 18.01 -12.66 17.02 -13 16 C-12.01 16 -11.02 16 -10 16 C-10 14.68 -10 13.36 -10 12 C-6.94736336 11.01879536 -5.05263664 11.01879536 -2 12 C-1.40929986 10.05396726 -1.40929986 10.05396726 -1 8 C-1.33 7.67 -1.66 7.34 -2 7 C-2.66 6.34 -3.32 5.68 -4 5 C-3.01 4.34 -2.02 3.68 -1 3 C-0.67 2.01 -0.34 1.02 0 0 Z M-17 23 C-17.33 23.99 -17.66 24.98 -18 26 C-19.65 25.67 -21.3 25.34 -23 25 C-23 24.34 -23 23.68 -23 23 C-20 22 -20 22 -17 23 Z " fill="#ED7508" transform="translate(50,23)"/>
<path d="M0 0 C2.64 0.99 5.28 1.98 8 3 C8 2.01 8 1.02 8 0 C9.32 0 10.64 0 12 0 C11.979375 0.763125 11.95875 1.52625 11.9375 2.3125 C11.87057159 5.10185786 11.87057159 5.10185786 13 8 C12.67 8.66 12.34 9.32 12 10 C8.35526801 10.89093449 5.57257469 11.23666047 2 10 C2.268125 10.556875 2.53625 11.11375 2.8125 11.6875 C2.874375 12.450625 2.93625 13.21375 3 14 C0.5625 16.75 0.5625 16.75 -2 19 C-1.67 19.99 -1.34 20.98 -1 22 C-1.33 22.99 -1.66 23.98 -2 25 C-2.66 24.34 -3.32 23.68 -4 23 C-4.721875 22.401875 -5.44375 21.80375 -6.1875 21.1875 C-7.0846875 20.1046875 -7.0846875 20.1046875 -8 19 C-7.75 16.375 -7.75 16.375 -7 14 C-7 13.34 -7 12.68 -7 12 C-6.68197057 10.33034549 -6.35015049 8.66321482 -6 7 C-5.01 7.33 -4.02 7.66 -3 8 C-3.33 8.66 -3.66 9.32 -4 10 C-1.94729537 8.15811388 -1.94729537 8.15811388 -1 6 C-1.99 5.67 -2.98 5.34 -4 5 C-2.02 4.67 -0.04 4.34 2 4 C2 3.67 2 3.34 2 3 C1.34 2.67 0.68 2.34 0 2 C0 1.34 0 0.68 0 0 Z " fill="#EF8D22" transform="translate(34,14)"/>
<path d="M0 0 C6.1521024 -0.32957691 10.37528237 0.59297006 16 3 C19 4.33333333 19 4.33333333 22 3 C22 6.57575896 20.91159393 8.05295935 19 11 C17.66666667 10.66666667 16.33333333 10.33333333 15 10 C14.278125 9.855625 13.55625 9.71125 12.8125 9.5625 C12.214375 9.376875 11.61625 9.19125 11 9 C10.67 8.34 10.34 7.68 10 7 C7.97399825 6.77488869 5.94540724 6.5559122 3.91015625 6.44140625 C2 6 2 6 0 3 C0.66 3 1.32 3 2 3 C2 2.34 2 1.68 2 1 C1.34 0.67 0.68 0.34 0 0 Z M16 6 C15.67 6.66 15.34 7.32 15 8 C15.99 7.67 16.98 7.34 18 7 C17.34 6.67 16.68 6.34 16 6 Z " fill="#397D20" transform="translate(26,3)"/>
<path d="M0 0 C0.66 1.98 1.32 3.96 2 6 C1.01 6.33 0.02 6.66 -1 7 C-1 6.01 -1 5.02 -1 4 C-2.65 3.67 -4.3 3.34 -6 3 C-5.67 3.33 -5.34 3.66 -5 4 C-4 5 -4 5 -3.9375 7.5625 C-3.958125 8.366875 -3.97875 9.17125 -4 10 C-4.66 9.01 -5.32 8.02 -6 7 C-6.99 7 -7.98 7 -9 7 C-8.34 8.65 -7.68 10.3 -7 12 C-8.32 12 -9.64 12 -11 12 C-11 11.34 -11 10.68 -11 10 C-11.66 9.67 -12.32 9.34 -13 9 C-13.66 10.32 -14.32 11.64 -15 13 C-16.53271136 9.93457729 -15.53183532 7.30919757 -15 4 C-15 3.34 -15 2.68 -15 2 C-9.92523206 0.73694665 -5.27203646 -0.27036084 0 0 Z " fill="#F1AC3F" transform="translate(41,12)"/>
<path d="M0 0 C-1.33957663 3.60655245 -2.67919144 6.91635231 -5 10 C-7.54370117 10.56762695 -7.54370117 10.56762695 -10.54296875 10.48828125 C-11.61611328 10.47216797 -12.68925781 10.45605469 -13.79492188 10.43945312 C-14.91447266 10.39755859 -16.03402344 10.35566406 -17.1875 10.3125 C-18.31865234 10.28994141 -19.44980469 10.26738281 -20.61523438 10.24414062 C-23.41147976 10.18514811 -26.20508097 10.1028824 -29 10 C-29 9.67 -29 9.34 -29 9 C-23.39 9 -17.78 9 -12 9 C-12 8.34 -12 7.68 -12 7 C-11.34 6.67 -10.68 6.34 -10 6 C-10.33 5.34 -10.66 4.68 -11 4 C-7.63661956 0.63661956 -4.71164284 0 0 0 Z " fill="#B05204" transform="translate(49,43)"/>
<path d="M0 0 C2.64 0.99 5.28 1.98 8 3 C8 2.01 8 1.02 8 0 C9.32 0 10.64 0 12 0 C11.979375 0.763125 11.95875 1.52625 11.9375 2.3125 C11.87057159 5.10185786 11.87057159 5.10185786 13 8 C12.67 8.66 12.34 9.32 12 10 C8.44307323 10.85056945 6.50729422 11.16909807 3 10 C2.87625 8.865625 2.7525 7.73125 2.625 6.5625 C2.41875 5.386875 2.2125 4.21125 2 3 C1.34 2.67 0.68 2.34 0 2 C0 1.34 0 0.68 0 0 Z " fill="#F09929" transform="translate(34,14)"/>
<path d="M0 0 C-0.33 1.32 -0.66 2.64 -1 4 C-1.99 4 -2.98 4 -4 4 C-3.34 4.33 -2.68 4.66 -2 5 C-3.2125738 8.72433382 -4.50859979 12.37802806 -6 16 C-6.66 16 -7.32 16 -8 16 C-8.12375 15.360625 -8.2475 14.72125 -8.375 14.0625 C-8.58125 13.381875 -8.7875 12.70125 -9 12 C-9.66 11.67 -10.32 11.34 -11 11 C-9.99806563 7.20696275 -9.18975773 4.28463659 -7 1 C-4.59258404 0.33796061 -2.49346035 0 0 0 Z " fill="#EE992D" transform="translate(25,14)"/>
<path d="M0 0 C3.26874604 3.5850763 5.09490645 6.06486444 5 11 C3.5870038 14.16885178 1.87322278 17.08321712 0 20 C-0.33 20 -0.66 20 -1 20 C-1 15.38 -1 10.76 -1 6 C-1.33 6.33 -1.66 6.66 -2 7 C-2.66 6.34 -3.32 5.68 -4 5 C-3.01 4.34 -2.02 3.68 -1 3 C-0.67 2.01 -0.34 1.02 0 0 Z " fill="#E4720C" transform="translate(50,23)"/>
<path d="M0 0 C2.71372659 2.00579792 3.03939963 3.17275223 3.8125 6.5625 C3.874375 7.696875 3.93625 8.83125 4 10 C3.34 10.66 2.68 11.32 2 12 C2.66 12.33 3.32 12.66 4 13 C3.01 14.485 3.01 14.485 2 16 C0.68 16 -0.64 16 -2 16 C-2.33 15.01 -2.66 14.02 -3 13 C-3.66 12.67 -4.32 12.34 -5 12 C-4.34 10.68 -3.68 9.36 -3 8 C-2.01 8 -1.02 8 0 8 C0.33 6.68 0.66 5.36 1 4 C0.34 3.67 -0.32 3.34 -1 3 C-0.67 2.01 -0.34 1.02 0 0 Z M-4 16 C-2 17 -2 17 -2 17 Z " fill="#DF831A" transform="translate(46,16)"/>
<path d="M0 0 C0.5 2 0.5 2 1 4 C1.226875 4.66 1.45375 5.32 1.6875 6 C2.09205762 8.58916878 1.33413341 9.80260379 0 12 C-0.66 11.67 -1.32 11.34 -2 11 C-2 11.99 -2 12.98 -2 14 C-1.34 14.33 -0.68 14.66 0 15 C-0.99 16.485 -0.99 16.485 -2 18 C-4.0472764 15.2157041 -5.0136408 13.62747671 -4.9375 10.125 C-3.78839607 6.29465358 -2.10557982 3.39609649 0 0 Z " fill="#D8801D" transform="translate(14,21)"/>
<path d="M0 0 C0.33 1.32 0.66 2.64 1 4 C-1.64 4 -4.28 4 -7 4 C-7.20625 4.598125 -7.4125 5.19625 -7.625 5.8125 C-9.51879122 8.82534967 -11.79072973 9.59594426 -15 11 C-15.99 11.495 -15.99 11.495 -17 12 C-13.70454092 4.58521707 -8.60684609 -0.7594276 0 0 Z " fill="#6C972C" transform="translate(28,4)"/>
<path d="M0 0 C2.31 0.33 4.62 0.66 7 1 C6.79375 1.556875 6.5875 2.11375 6.375 2.6875 C5.89304789 5.659538 6.73434972 7.31979941 8 10 C6.68 10 5.36 10 4 10 C4 9.34 4 8.68 4 8 C3.34 7.67 2.68 7.34 2 7 C1.34 8.32 0.68 9.64 0 11 C-1.53271136 7.93457729 -0.53183532 5.30919757 0 2 C0 1.34 0 0.68 0 0 Z " fill="#F8A641" transform="translate(26,14)"/>
<path d="M0 0 C0.99 -0.33 1.98 -0.66 3 -1 C3 2.57575896 1.91159393 4.05295935 0 7 C-1.32 6.67 -2.64 6.34 -4 6 C-3.34 5.01 -2.68 4.02 -2 3 C-6.49656104 0.75171948 -10.07872966 0.83317728 -15 1 C-15 0.34 -15 -0.32 -15 -1 C-9.48570928 -2.18163372 -5.32489431 -1.77496477 0 0 Z " fill="#677D23" transform="translate(45,7)"/>
<path d="M0 0 C1.65 0.33 3.3 0.66 5 1 C5 2.32 5 3.64 5 5 C4.34 5.66 3.68 6.32 3 7 C-0.0625 6.75 -0.0625 6.75 -3 6 C-3.33 5.34 -3.66 4.68 -4 4 C-3.34 3.01 -2.68 2.02 -2 1 C-1.34 1.33 -0.68 1.66 0 2 C0 1.34 0 0.68 0 0 Z " fill="#EC7A10" transform="translate(17,36)"/>
<path d="M0 0 C3.06393013 -0.25532751 4.63233212 -0.21861333 7.3125 1.375 C7.869375 1.91125 8.42625 2.4475 9 3 C9 3.66 9 4.32 9 5 C8.05125 5.12375 7.1025 5.2475 6.125 5.375 C2.91332809 5.71687177 2.91332809 5.71687177 1 8 C0.67 5.36 0.34 2.72 0 0 Z " fill="#F3881D" transform="translate(12,32)"/>
<path d="M0 0 C8.57142857 -0.28571429 8.57142857 -0.28571429 12 2 C9.29120665 3.35439668 6.99066732 3.06501451 4 3 C3.67 3.66 3.34 4.32 3 5 C2.01 4.34 1.02 3.68 0 3 C0.66 3 1.32 3 2 3 C2 2.34 2 1.68 2 1 C1.34 0.67 0.68 0.34 0 0 Z " fill="#508423" transform="translate(26,3)"/>
<path d="M0 0 C0.33 0.99 0.66 1.98 1 3 C0.34 3.66 -0.32 4.32 -1 5 C-0.34 5.33 0.32 5.66 1 6 C0.01 7.485 0.01 7.485 -1 9 C-2.32 9 -3.64 9 -5 9 C-4.67 7.02 -4.34 5.04 -4 3 C-2.68 2.67 -1.36 2.34 0 2 C0 1.34 0 0.68 0 0 Z M-7 9 C-5 10 -5 10 -5 10 Z " fill="#F49027" transform="translate(49,23)"/>
<path d="M0 0 C2.97 0.33 5.94 0.66 9 1 C8.67 1.66 8.34 2.32 8 3 C5.93359375 3.4140625 5.93359375 3.4140625 3.4375 3.625 C2.61121094 3.69976562 1.78492188 3.77453125 0.93359375 3.8515625 C-0.02353516 3.92503906 -0.02353516 3.92503906 -1 4 C-0.67 2.68 -0.34 1.36 0 0 Z " fill="#679B24" transform="translate(27,10)"/>
<path d="M0 0 C2.475 0.495 2.475 0.495 5 1 C5.66 3.64 6.32 6.28 7 9 C6.01 9.495 6.01 9.495 5 10 C3.35 6.7 1.7 3.4 0 0 Z " fill="#C6620E" transform="translate(14,42)"/>
<path d="M0 0 C1.32 0.33 2.64 0.66 4 1 C3 4 3 4 0.0625 5.625 C-0.948125 6.07875 -1.95875 6.5325 -3 7 C-3.99 7.495 -3.99 7.495 -5 8 C-3.62845496 5.04590299 -2.01136276 2.55991624 0 0 Z " fill="#7B9F3B" transform="translate(16,8)"/>
<path d="M0 0 C0.99 0.33 1.98 0.66 3 1 C3.33 1.99 3.66 2.98 4 4 C3.34 4.66 2.68 5.32 2 6 C-0.625 5.625 -0.625 5.625 -3 5 C-2.01 3.35 -1.02 1.7 0 0 Z " fill="#F27F26" transform="translate(35,38)"/>
<path d="M0 0 C2.31 0.33 4.62 0.66 7 1 C6.67 2.32 6.34 3.64 6 5 C3.03 4.505 3.03 4.505 0 4 C0 2.68 0 1.36 0 0 Z " fill="#F39E3B" transform="translate(26,14)"/>
<path d="M0 0 C1.32 1.65 2.64 3.3 4 5 C3.67 5.66 3.34 6.32 3 7 C2.360625 6.814375 1.72125 6.62875 1.0625 6.4375 C0.0415625 6.2209375 0.0415625 6.2209375 -1 6 C-1.33 6.33 -1.66 6.66 -2 7 C-2.66 6.34 -3.32 5.68 -4 5 C-3.01 4.34 -2.02 3.68 -1 3 C-0.67 2.01 -0.34 1.02 0 0 Z " fill="#DB7410" transform="translate(50,23)"/>
<path d="M0 0 C1.32 0 2.64 0 4 0 C4.125 2.375 4.125 2.375 4 5 C3.34 5.66 2.68 6.32 2 7 C1.01 7 0.02 7 -1 7 C-0.67 4.69 -0.34 2.38 0 0 Z " fill="#EB9C33" transform="translate(42,14)"/>
<path d="M0 0 C2.0625 0.4375 2.0625 0.4375 4 1 C3.67 1.66 3.34 2.32 3 3 C3.99 3.33 4.98 3.66 6 4 C6 5.65 6 7.3 6 9 C5.34 8.01 4.68 7.02 4 6 C3.01 5.67 2.02 5.34 1 5 C1 4.34 1 3.68 1 3 C0.34 2.34 -0.32 1.68 -1 1 C-0.67 0.67 -0.34 0.34 0 0 Z " fill="#F5AE4E" transform="translate(31,13)"/>
<path d="M0 0 C0 0.66 0 1.32 0 2 C-3.63 2 -7.26 2 -11 2 C-11 1.34 -11 0.68 -11 0 C-6.98195309 -0.84098656 -3.98196457 -1.05404945 0 0 Z " fill="#669F2E" transform="translate(41,6)"/>
<path d="M0 0 C0.99 0.33 1.98 0.66 3 1 C1.68 3.31 0.36 5.62 -1 8 C-1.33 8 -1.66 8 -2 8 C-2.125 5.125 -2.125 5.125 -2 2 C-1.34 1.34 -0.68 0.68 0 0 Z " fill="#B95B0B" transform="translate(51,35)"/>
<path d="M0 0 C-0.33 1.32 -0.66 2.64 -1 4 C-1.61875 3.814375 -2.2375 3.62875 -2.875 3.4375 C-5.04160178 2.76313824 -5.04160178 2.76313824 -7 4 C-7 3.01 -7 2.02 -7 1 C-2.25 0 -2.25 0 0 0 Z " fill="#EFA53A" transform="translate(25,14)"/>
<path d="M0 0 C1.32 0 2.64 0 4 0 C2.92598892 2.91517292 2.22189824 4.77810176 0 7 C0 4.69 0 2.38 0 0 Z M-2 1 C0 2 0 2 0 2 Z " fill="#C45C09" transform="translate(45,43)"/>
</svg>
