<?xml version="1.0" encoding="UTF-8"?>
<svg version="1.1" xmlns="http://www.w3.org/2000/svg" width="200" height="200">
<path d="M0 0 C20.39191155 16.28167645 34.94326039 39.84336598 38 66 C40.09431472 95.4174059 34.57622838 122.24066184 15.3671875 145.22265625 C-1.53283008 164.6444757 -25.27368683 178.38204455 -51.2578125 180.23193359 C-81.13968688 181.55639587 -107.76644373 175.03393809 -130.3125 154.625 C-149.12674006 136.92200678 -161.23503867 113.23364648 -162.38671875 87.25 C-163.10896279 57.88938306 -155.64708795 31.9036366 -135.22094727 10.1953125 C-99.39351747 -26.56728444 -40.91960224 -30.92351063 0 0 Z " fill="#FEFBFB" transform="translate(162,20)"/>
<path d="M0 0 C20.39191155 16.28167645 34.94326039 39.84336598 38 66 C40.09431472 95.4174059 34.57622838 122.24066184 15.3671875 145.22265625 C-1.53283008 164.6444757 -25.27368683 178.38204455 -51.2578125 180.23193359 C-81.13968688 181.55639587 -107.76644373 175.03393809 -130.3125 154.625 C-149.12674006 136.92200678 -161.23503867 113.23364648 -162.38671875 87.25 C-163.10896279 57.88938306 -155.64708795 31.9036366 -135.22094727 10.1953125 C-99.39351747 -26.56728444 -40.91960224 -30.92351063 0 0 Z M-123.61572266 23.48632812 C-139.77165084 41.15242244 -145.98668099 63.51482393 -145 87 C-144.31635738 96.88351895 -142.31917123 105.09721849 -138 114 C-137.63003906 114.83917969 -137.26007813 115.67835938 -136.87890625 116.54296875 C-126.36627914 139.42339246 -106.58420318 152.0307683 -84 161 C-81.68395183 161.51042351 -81.68395183 161.51042351 -79.625 161.625 C-76 162 -76 162 -75 163 C-63.8586735 163.83311415 -51.84470199 163.79138779 -41 161 C-40.04609375 160.75507813 -39.0921875 160.51015625 -38.109375 160.2578125 C-17.89148451 154.27712762 -0.0513094 139.89048672 10.17895508 121.53344727 C21.37020197 100.54596858 24.68761718 78.21133191 17.73193359 55.14501953 C13.92050603 43.9751721 7.50063472 33.08790597 0 24 C-0.66 24 -1.32 24 -2 24 C-2 23.34 -2 22.68 -2 22 C-2.66 22 -3.32 22 -4 22 C-4 21.34 -4 20.68 -4 20 C-4.66 20 -5.32 20 -6 20 C-6.36351562 19.11248047 -6.36351562 19.11248047 -6.734375 18.20703125 C-12.35462704 8.40628309 -29.13305627 2.66675395 -39.3125 -0.375 C-44.55076207 -1.7384631 -49.59064295 -2.78324876 -55 -3 C-55.86367187 -3.03996094 -56.72734375 -3.07992188 -57.6171875 -3.12109375 C-83.67435698 -3.72132665 -105.19052765 4.66751247 -123.61572266 23.48632812 Z " fill="#7948D8" transform="translate(162,20)"/>
<path d="M0 0 C0.67194397 -0.0131424 1.34388794 -0.02628479 2.03619385 -0.03982544 C4.25883454 -0.07922812 6.48120524 -0.10260252 8.70410156 -0.12255859 C9.46489265 -0.13070965 10.22568375 -0.1388607 11.00952911 -0.14725876 C15.03759163 -0.18895627 19.06551845 -0.21756773 23.09375 -0.23632812 C27.24501771 -0.25843739 31.39413494 -0.32720963 35.5446434 -0.40667152 C38.74468839 -0.45908702 41.9442245 -0.47571848 45.14466095 -0.48289108 C46.67412062 -0.49260485 48.20355888 -0.5157839 49.73259735 -0.55296707 C61.66926341 -0.82516443 61.66926341 -0.82516443 65.82264709 2.09793091 C67.61070712 4.10412376 69.00809561 6.02876875 70.34472656 8.35400391 C70.910625 9.24345703 71.47652344 10.13291016 72.05957031 11.04931641 C72.66478516 12.25201172 72.66478516 12.25201172 73.28222656 13.47900391 C79.04729227 24.5425112 85.44218671 35.26298077 91.71972656 46.04150391 C92.33912109 47.1058667 92.95851562 48.17022949 93.59667969 49.2668457 C94.47356445 50.76985229 94.47356445 50.76985229 95.36816406 52.30322266 C95.8932959 53.20387451 96.41842773 54.10452637 96.95947266 55.0324707 C98.03673311 56.83784075 99.17855583 58.60474781 100.34472656 60.35400391 C101.09001921 66.56731094 99.29736794 70.14547629 96.21972656 75.29150391 C95.78104248 76.05221191 95.3423584 76.81291992 94.89038086 77.59667969 C93.38939822 80.19100261 91.86669954 82.77194567 90.34472656 85.35400391 C89.16495992 87.3831494 87.98662725 89.41312914 86.80957031 91.44384766 C83.90659246 96.44462321 80.98835278 101.43620721 78.06201172 106.42333984 C75.67664462 110.49413123 73.30280459 114.57161391 70.92944336 118.64941406 C66.51455434 126.18417613 66.51455434 126.18417613 65.34472656 127.35400391 C64.00205243 127.44032265 62.65498334 127.46106864 61.30957031 127.45166016 C60.50068359 127.4484375 59.69179687 127.44521484 58.85839844 127.44189453 C58.00826172 127.43351562 57.158125 127.42513672 56.28222656 127.41650391 C55.42822266 127.41199219 54.57421875 127.40748047 53.69433594 127.40283203 C51.57776993 127.39100764 49.46123971 127.37307159 47.34472656 127.35400391 C49.05618806 122.6217661 51.45503679 118.35515507 53.90722656 113.97900391 C54.34397705 113.19114502 54.78072754 112.40328613 55.23071289 111.59155273 C57.41688075 107.67612807 59.65346101 103.81114806 62.04003906 100.01416016 C62.45954834 99.34239746 62.87905762 98.67063477 63.3112793 97.97851562 C64.10754538 96.71525326 64.91645131 95.45984436 65.73950195 94.21386719 C67.85626336 90.87757417 67.85626336 90.87757417 68.14477539 87.03833008 C67.17980474 83.80065773 65.75501607 81.19417862 64.06347656 78.26806641 C63.73109985 77.68922699 63.39872314 77.11038757 63.05627441 76.51400757 C61.99227682 74.66515521 60.91856581 72.82215359 59.84472656 70.97900391 C58.80802945 69.17962868 57.77320143 67.37922976 56.74134827 65.57707214 C56.0345745 64.36271926 55.31244575 63.15718459 54.57591248 61.96064758 C52.61189392 58.74402384 51.04931634 55.69337898 49.80981445 52.12817383 C48.10221773 47.71466091 46.41628641 43.99837633 42.34472656 41.35400391 C33.15025138 38.83545601 23.18984926 39.9551468 13.78222656 40.41650391 C11.12551458 40.50030802 8.46892646 40.56021581 5.81152344 40.62158203 C-0.68186665 40.78644665 -7.16762832 41.03695242 -13.65527344 41.35400391 C-14.10916946 42.5114637 -14.10916946 42.5114637 -14.57223511 43.69230652 C-15.70285503 46.47094142 -17.03079187 49.02648957 -18.47558594 51.65478516 C-19.01054688 52.63125 -19.54550781 53.60771484 -20.09667969 54.61376953 C-20.65226562 55.62117188 -21.20785156 56.62857422 -21.78027344 57.66650391 C-22.34359375 58.69324219 -22.90691406 59.71998047 -23.48730469 60.77783203 C-24.87410237 63.30462442 -26.26350179 65.82994884 -27.65527344 68.35400391 C-28.31527344 68.35400391 -28.97527344 68.35400391 -29.65527344 68.35400391 C-29.98527344 70.00400391 -30.31527344 71.65400391 -30.65527344 73.35400391 C-31.31527344 73.35400391 -31.97527344 73.35400391 -32.65527344 73.35400391 C-33.31527344 75.00400391 -33.97527344 76.65400391 -34.65527344 78.35400391 C-35.31527344 78.35400391 -35.97527344 78.35400391 -36.65527344 78.35400391 C-39.65527344 73.96938852 -39.65527344 73.96938852 -39.65527344 71.35400391 C-40.31527344 71.35400391 -40.97527344 71.35400391 -41.65527344 71.35400391 C-43.77317512 67.91241367 -43.94606731 65.35685811 -43.65527344 61.35400391 C-42.52880859 58.64770508 -42.52880859 58.64770508 -40.94433594 55.89697266 C-40.07373535 54.36459961 -40.07373535 54.36459961 -39.18554688 52.80126953 C-38.55680664 51.72554687 -37.92806641 50.64982422 -37.28027344 49.54150391 C-36.6412207 48.42582031 -36.00216797 47.31013672 -35.34375 46.16064453 C-33.46149794 42.88346709 -31.56167405 39.61717962 -29.65527344 36.35400391 C-29.16575195 35.5117627 -28.67623047 34.66952148 -28.171875 33.80175781 C-26.14578129 30.31786496 -24.10487986 26.84357862 -22.04199219 23.38134766 C-20.30931802 20.47187184 -18.60994335 17.54517159 -16.92480469 14.60791016 C-16.47202148 13.82351562 -16.01923828 13.03912109 -15.55273438 12.23095703 C-14.68479683 10.72619332 -13.82187861 9.21851942 -12.96484375 7.70751953 C-9.34468378 1.46132127 -7.13270758 0.11550872 0 0 Z " fill="#FE2486" transform="translate(71.6552734375,35.64599609375)"/>
<path d="M0 0 C1.90407772 -0.08577333 3.81139482 -0.11327857 5.71728516 -0.09204102 C6.73303619 -0.1087233 7.74878723 -0.12540558 8.7953186 -0.14259338 C10.93849224 -0.16249377 13.08203857 -0.15673572 15.22509766 -0.12695312 C18.49498667 -0.09605462 21.74603072 -0.18751649 25.01416016 -0.28930664 C40.01089481 -0.45353318 40.01089481 -0.45353318 45.10668945 3.86035156 C47.21528511 7.26333268 48.66271841 10.62107447 50.13134766 14.34155273 C51.45891105 16.6362897 52.82523383 18.90903215 54.22900391 21.15795898 C55.5525526 23.40551906 56.87417012 25.65421749 58.19384766 27.90405273 C58.53826904 28.47873291 58.88269043 29.05341309 59.23754883 29.64550781 C60.2464546 31.33017445 61.23802692 33.02518404 62.22900391 34.72045898 C63.10310913 36.19881226 63.10310913 36.19881226 63.99487305 37.70703125 C65.13134766 40.34155273 65.13134766 40.34155273 65.01074219 42.33496094 C63.8303128 45.02845043 62.44368607 47.52584415 60.96337891 50.06811523 C60.31691406 51.1831543 59.67044922 52.29819336 59.00439453 53.44702148 C58.31760168 54.62023141 57.63075244 55.79340834 56.94384766 56.96655273 C56.28320312 58.10479492 55.62255859 59.24303711 54.94189453 60.41577148 C43.66516967 79.80773072 43.66516967 79.80773072 42.13134766 81.34155273 C39.94495312 81.41414219 37.75634377 81.42529056 35.56884766 81.40405273 C33.77253906 81.39051758 33.77253906 81.39051758 31.93994141 81.37670898 C30.5496875 81.35930664 30.5496875 81.35930664 29.13134766 81.34155273 C29.74704062 76.10327613 32.45598015 72.40230793 35.33642578 68.15795898 C37.58473328 64.70215179 38.98288251 62.44607325 38.13134766 58.34155273 C36.74403705 55.42435 35.0869498 52.70701461 33.38134766 49.96655273 C32.49038664 48.50061107 31.5997579 47.0344674 30.70947266 45.56811523 C30.27699219 44.86332031 29.84451172 44.15852539 29.39892578 43.43237305 C27.58208723 40.43556924 25.85438774 37.39310502 24.13134766 34.34155273 C5.90077487 31.9110448 5.90077487 31.9110448 -11.26660156 35.74926758 C-14.96524584 39.66566753 -16.34715232 44.26988598 -17.86865234 49.34155273 C-19.53271484 51.82592773 -19.53271484 51.82592773 -20.86865234 53.34155273 C-21.91026759 51.81385038 -22.92620093 50.26861893 -23.93115234 48.71655273 C-24.49962891 47.85803711 -25.06810547 46.99952148 -25.65380859 46.11499023 C-27.19182636 42.60375997 -26.76417087 41.04058101 -25.86865234 37.34155273 C-24.47338867 34.43237305 -24.47338867 34.43237305 -22.70068359 31.41967773 C-22.05421875 30.31108398 -21.40775391 29.20249023 -20.74169922 28.06030273 C-20.05503061 26.90394562 -19.36818079 25.74769609 -18.68115234 24.59155273 C-18.02050781 23.46233398 -17.35986328 22.33311523 -16.67919922 21.16967773 C-14.75436883 17.88625531 -12.81713418 14.61099578 -10.86865234 11.34155273 C-10.47176208 10.49076645 -10.07487183 9.63998016 -9.66595459 8.76341248 C-7.221168 3.90012527 -5.63171726 0.83813869 0 0 Z " fill="#FF6531" transform="translate(67.86865234375,81.658447265625)"/>
<path d="M0 0 C5.77469357 1.26875772 8.46519606 3.5299223 11.66821289 8.42871094 C17.68021811 19.54032469 17.68021811 19.54032469 15.94921875 25.83984375 C14.01830743 32.15569891 11.25385434 38.69197061 5.94921875 42.83984375 C1.84421098 44.21234321 -1.99215239 44.41880985 -6.30078125 44.40234375 C-7.35467041 44.40403564 -8.40855957 44.40572754 -9.49438477 44.4074707 C-13.62723546 44.15358104 -16.80069687 43.92538148 -19.99829102 41.14868164 C-21.55527217 39.11727945 -22.82219191 37.08279471 -24.05078125 34.83984375 C-24.68886719 33.84597656 -25.32695313 32.85210937 -25.984375 31.828125 C-26.48066406 30.94511719 -26.97695313 30.06210938 -27.48828125 29.15234375 C-28.00261719 28.26160156 -28.51695313 27.37085938 -29.046875 26.453125 C-30.28560514 23.22857067 -30.10954819 22.11496281 -29.05078125 18.83984375 C-28.84380615 18.18459717 -28.63683105 17.52935059 -28.42358398 16.85424805 C-23.36827513 2.43925109 -15.1294473 -1.61947739 0 0 Z " fill="#FFBE0C" transform="translate(82.05078125,120.16015625)"/>
</svg>
